solid 
 facet normal  7.059979e-02 -3.547633e-01 -9.322868e-01
   outer loop
     vertex  8.058839e+00 -1.035326e+01 -1.466392e+01
     vertex  9.249944e+00 -1.039246e+01 -1.455880e+01
     vertex  8.058839e+00 -1.143978e+01 -1.425046e+01
   endloop
 endfacet
 facet normal  3.547633e-01 -7.059979e-02 -9.322868e-01
   outer loop
     vertex  1.035326e+01 -8.058839e+00 -1.466392e+01
     vertex  1.143978e+01 -8.058839e+00 -1.425046e+01
     vertex  1.039246e+01 -9.249944e+00 -1.455880e+01
   endloop
 endfacet
 facet normal  2.157668e-01 -7.878977e-02 -9.732610e-01
   outer loop
     vertex  9.218294e+00 -8.058839e+00 -1.491553e+01
     vertex  1.035326e+01 -8.058839e+00 -1.466392e+01
     vertex  1.039246e+01 -9.249944e+00 -1.455880e+01
   endloop
 endfacet
 facet normal  7.246694e-02 -7.246694e-02 -9.947347e-01
   outer loop
     vertex  8.058839e+00 -8.058839e+00 -1.500000e+01
     vertex  9.218294e+00 -8.058839e+00 -1.491553e+01
     vertex  8.058839e+00 -9.218294e+00 -1.491553e+01
   endloop
 endfacet
 facet normal  2.842248e-02 -2.163522e-01 -9.759016e-01
   outer loop
     vertex  8.909129e+00 -9.790356e+00 -1.476395e+01
     vertex  8.058839e+00 -1.035326e+01 -1.466392e+01
     vertex  8.058839e+00 -9.218294e+00 -1.491553e+01
   endloop
 endfacet
 facet normal  2.079430e-01 -2.079430e-01 -9.557821e-01
   outer loop
     vertex  8.909129e+00 -9.790356e+00 -1.476395e+01
     vertex  1.039246e+01 -9.249944e+00 -1.455880e+01
     vertex  9.249944e+00 -1.039246e+01 -1.455880e+01
   endloop
 endfacet
 facet normal  7.505380e-02 -2.832711e-01 -9.560985e-01
   outer loop
     vertex  8.909129e+00 -9.790356e+00 -1.476395e+01
     vertex  9.249944e+00 -1.039246e+01 -1.455880e+01
     vertex  8.058839e+00 -1.035326e+01 -1.466392e+01
   endloop
 endfacet
 facet normal  1.778570e-01 -1.172926e-01 -9.770411e-01
   outer loop
     vertex  8.909129e+00 -9.790356e+00 -1.476395e+01
     vertex  9.218294e+00 -8.058839e+00 -1.491553e+01
     vertex  1.039246e+01 -9.249944e+00 -1.455880e+01
   endloop
 endfacet
 facet normal  1.053848e-01 -1.053848e-01 -9.888317e-01
   outer loop
     vertex  8.909129e+00 -9.790356e+00 -1.476395e+01
     vertex  8.058839e+00 -9.218294e+00 -1.491553e+01
     vertex  9.218294e+00 -8.058839e+00 -1.491553e+01
   endloop
 endfacet
 facet normal -5.378156e-17 -3.556508e-01 -9.346189e-01
   outer loop
     vertex  8.058839e+00 -1.035326e+01 -1.466392e+01
     vertex -8.058839e+00 -1.143978e+01 -1.425046e+01
     vertex -8.058839e+00 -1.035326e+01 -1.466392e+01
   endloop
 endfacet
 facet normal -6.517743e-17 -3.556508e-01 -9.346189e-01
   outer loop
     vertex  8.058839e+00 -1.035326e+01 -1.466392e+01
     vertex  8.058839e+00 -1.143978e+01 -1.425046e+01
     vertex -8.058839e+00 -1.143978e+01 -1.425046e+01
   endloop
 endfacet
 facet normal -1.192709e-16 -2.164396e-01 -9.762960e-01
   outer loop
     vertex  8.058839e+00 -9.218294e+00 -1.491553e+01
     vertex -8.058839e+00 -1.035326e+01 -1.466392e+01
     vertex -8.058839e+00 -9.218294e+00 -1.491553e+01
   endloop
 endfacet
 facet normal  1.185044e-17 -2.164396e-01 -9.762960e-01
   outer loop
     vertex  8.058839e+00 -9.218294e+00 -1.491553e+01
     vertex  8.058839e+00 -1.035326e+01 -1.466392e+01
     vertex -8.058839e+00 -1.035326e+01 -1.466392e+01
   endloop
 endfacet
 facet normal  1.601552e-17 -7.265797e-02 -9.973569e-01
   outer loop
     vertex  8.058839e+00 -8.058839e+00 -1.500000e+01
     vertex -8.058839e+00 -9.218294e+00 -1.491553e+01
     vertex -8.058839e+00 -8.058839e+00 -1.500000e+01
   endloop
 endfacet
 facet normal -3.999524e-17 -7.265797e-02 -9.973569e-01
   outer loop
     vertex  8.058839e+00 -8.058839e+00 -1.500000e+01
     vertex  8.058839e+00 -9.218294e+00 -1.491553e+01
     vertex -8.058839e+00 -9.218294e+00 -1.491553e+01
   endloop
 endfacet
 facet normal -7.059979e-02 -3.547633e-01 -9.322868e-01
   outer loop
     vertex -9.249944e+00 -1.039246e+01 -1.455880e+01
     vertex -8.058839e+00 -1.035326e+01 -1.466392e+01
     vertex -8.058839e+00 -1.143978e+01 -1.425046e+01
   endloop
 endfacet
 facet normal -7.246694e-02 -7.246694e-02 -9.947347e-01
   outer loop
     vertex -9.218294e+00 -8.058839e+00 -1.491553e+01
     vertex -8.058839e+00 -8.058839e+00 -1.500000e+01
     vertex -8.058839e+00 -9.218294e+00 -1.491553e+01
   endloop
 endfacet
 facet normal -2.157668e-01 -7.878977e-02 -9.732610e-01
   outer loop
     vertex -1.035326e+01 -8.058839e+00 -1.466392e+01
     vertex -9.218294e+00 -8.058839e+00 -1.491553e+01
     vertex -1.039246e+01 -9.249944e+00 -1.455880e+01
   endloop
 endfacet
 facet normal -3.547633e-01 -7.059979e-02 -9.322868e-01
   outer loop
     vertex -1.143978e+01 -8.058839e+00 -1.425046e+01
     vertex -1.035326e+01 -8.058839e+00 -1.466392e+01
     vertex -1.039246e+01 -9.249944e+00 -1.455880e+01
   endloop
 endfacet
 facet normal -2.842248e-02 -2.163522e-01 -9.759016e-01
   outer loop
     vertex -8.909129e+00 -9.790356e+00 -1.476395e+01
     vertex -8.058839e+00 -9.218294e+00 -1.491553e+01
     vertex -8.058839e+00 -1.035326e+01 -1.466392e+01
   endloop
 endfacet
 facet normal -2.079430e-01 -2.079430e-01 -9.557821e-01
   outer loop
     vertex -8.909129e+00 -9.790356e+00 -1.476395e+01
     vertex -9.249944e+00 -1.039246e+01 -1.455880e+01
     vertex -1.039246e+01 -9.249944e+00 -1.455880e+01
   endloop
 endfacet
 facet normal -7.505380e-02 -2.832711e-01 -9.560985e-01
   outer loop
     vertex -8.909129e+00 -9.790356e+00 -1.476395e+01
     vertex -8.058839e+00 -1.035326e+01 -1.466392e+01
     vertex -9.249944e+00 -1.039246e+01 -1.455880e+01
   endloop
 endfacet
 facet normal -1.053848e-01 -1.053848e-01 -9.888317e-01
   outer loop
     vertex -8.909129e+00 -9.790356e+00 -1.476395e+01
     vertex -9.218294e+00 -8.058839e+00 -1.491553e+01
     vertex -8.058839e+00 -9.218294e+00 -1.491553e+01
   endloop
 endfacet
 facet normal -1.778570e-01 -1.172926e-01 -9.770411e-01
   outer loop
     vertex -8.909129e+00 -9.790356e+00 -1.476395e+01
     vertex -1.039246e+01 -9.249944e+00 -1.455880e+01
     vertex -9.218294e+00 -8.058839e+00 -1.491553e+01
   endloop
 endfacet
 facet normal -3.556508e-01  7.839376e-17 -9.346189e-01
   outer loop
     vertex -1.035326e+01 -8.058839e+00 -1.466392e+01
     vertex -1.143978e+01  8.058839e+00 -1.425046e+01
     vertex -1.035326e+01  8.058839e+00 -1.466392e+01
   endloop
 endfacet
 facet normal -3.556508e-01  3.851393e-17 -9.346189e-01
   outer loop
     vertex -1.035326e+01 -8.058839e+00 -1.466392e+01
     vertex -1.143978e+01 -8.058839e+00 -1.425046e+01
     vertex -1.143978e+01  8.058839e+00 -1.425046e+01
   endloop
 endfacet
 facet normal -2.164396e-01  0.000000e+00 -9.762960e-01
   outer loop
     vertex -9.218294e+00 -8.058839e+00 -1.491553e+01
     vertex -1.035326e+01  8.058839e+00 -1.466392e+01
     vertex -9.218294e+00  8.058839e+00 -1.491553e+01
   endloop
 endfacet
 facet normal -2.164396e-01  4.740176e-17 -9.762960e-01
   outer loop
     vertex -9.218294e+00 -8.058839e+00 -1.491553e+01
     vertex -1.035326e+01 -8.058839e+00 -1.466392e+01
     vertex -1.035326e+01  8.058839e+00 -1.466392e+01
   endloop
 endfacet
 facet normal -7.265797e-02  0.000000e+00 -9.973569e-01
   outer loop
     vertex -8.058839e+00 -8.058839e+00 -1.500000e+01
     vertex -9.218294e+00  8.058839e+00 -1.491553e+01
     vertex -8.058839e+00  8.058839e+00 -1.500000e+01
   endloop
 endfacet
 facet normal -7.265797e-02  0.000000e+00 -9.973569e-01
   outer loop
     vertex -8.058839e+00 -8.058839e+00 -1.500000e+01
     vertex -9.218294e+00 -8.058839e+00 -1.491553e+01
     vertex -9.218294e+00  8.058839e+00 -1.491553e+01
   endloop
 endfacet
 facet normal -7.246694e-02  7.246694e-02 -9.947347e-01
   outer loop
     vertex -8.058839e+00  9.218294e+00 -1.491553e+01
     vertex -8.058839e+00  8.058839e+00 -1.500000e+01
     vertex -9.218294e+00  8.058839e+00 -1.491553e+01
   endloop
 endfacet
 facet normal -3.547633e-01  7.059979e-02 -9.322868e-01
   outer loop
     vertex -1.039246e+01  9.249944e+00 -1.455880e+01
     vertex -1.035326e+01  8.058839e+00 -1.466392e+01
     vertex -1.143978e+01  8.058839e+00 -1.425046e+01
   endloop
 endfacet
 facet normal -2.157668e-01  7.878977e-02 -9.732610e-01
   outer loop
     vertex -1.039246e+01  9.249944e+00 -1.455880e+01
     vertex -9.218294e+00  8.058839e+00 -1.491553e+01
     vertex -1.035326e+01  8.058839e+00 -1.466392e+01
   endloop
 endfacet
 facet normal -7.059979e-02  3.547633e-01 -9.322868e-01
   outer loop
     vertex -9.249944e+00  1.039246e+01 -1.455880e+01
     vertex -8.058839e+00  1.143978e+01 -1.425046e+01
     vertex -8.058839e+00  1.035326e+01 -1.466392e+01
   endloop
 endfacet
 facet normal -2.079430e-01  2.079430e-01 -9.557821e-01
   outer loop
     vertex -8.909129e+00  9.790356e+00 -1.476395e+01
     vertex -1.039246e+01  9.249944e+00 -1.455880e+01
     vertex -9.249944e+00  1.039246e+01 -1.455880e+01
   endloop
 endfacet
 facet normal -2.842248e-02  2.163522e-01 -9.759016e-01
   outer loop
     vertex -8.909129e+00  9.790356e+00 -1.476395e+01
     vertex -8.058839e+00  1.035326e+01 -1.466392e+01
     vertex -8.058839e+00  9.218294e+00 -1.491553e+01
   endloop
 endfacet
 facet normal -1.053848e-01  1.053848e-01 -9.888317e-01
   outer loop
     vertex -8.909129e+00  9.790356e+00 -1.476395e+01
     vertex -8.058839e+00  9.218294e+00 -1.491553e+01
     vertex -9.218294e+00  8.058839e+00 -1.491553e+01
   endloop
 endfacet
 facet normal -7.505380e-02  2.832711e-01 -9.560985e-01
   outer loop
     vertex -8.909129e+00  9.790356e+00 -1.476395e+01
     vertex -9.249944e+00  1.039246e+01 -1.455880e+01
     vertex -8.058839e+00  1.035326e+01 -1.466392e+01
   endloop
 endfacet
 facet normal -1.778570e-01  1.172926e-01 -9.770411e-01
   outer loop
     vertex -8.909129e+00  9.790356e+00 -1.476395e+01
     vertex -9.218294e+00  8.058839e+00 -1.491553e+01
     vertex -1.039246e+01  9.249944e+00 -1.455880e+01
   endloop
 endfacet
 facet normal  6.380907e-17  3.556508e-01 -9.346189e-01
   outer loop
     vertex -8.058839e+00  1.143978e+01 -1.425046e+01
     vertex  8.058839e+00  1.143978e+01 -1.425046e+01
     vertex  8.058839e+00  1.035326e+01 -1.466392e+01
   endloop
 endfacet
 facet normal  1.218253e-17  2.164396e-01 -9.762960e-01
   outer loop
     vertex -8.058839e+00  1.035326e+01 -1.466392e+01
     vertex  8.058839e+00  1.035326e+01 -1.466392e+01
     vertex  8.058839e+00  9.218294e+00 -1.491553e+01
   endloop
 endfacet
 facet normal -5.378156e-17  3.556508e-01 -9.346189e-01
   outer loop
     vertex -8.058839e+00  1.035326e+01 -1.466392e+01
     vertex -8.058839e+00  1.143978e+01 -1.425046e+01
     vertex  8.058839e+00  1.035326e+01 -1.466392e+01
   endloop
 endfacet
 facet normal  1.958175e-16  7.265797e-02 -9.973569e-01
   outer loop
     vertex -8.058839e+00  9.218294e+00 -1.491553e+01
     vertex  8.058839e+00  9.218294e+00 -1.491553e+01
     vertex  8.058839e+00  8.058839e+00 -1.500000e+01
   endloop
 endfacet
 facet normal  1.436360e-16  2.164396e-01 -9.762960e-01
   outer loop
     vertex -8.058839e+00  9.218294e+00 -1.491553e+01
     vertex -8.058839e+00  1.035326e+01 -1.466392e+01
     vertex  8.058839e+00  9.218294e+00 -1.491553e+01
   endloop
 endfacet
 facet normal -1.601552e-17  7.265797e-02 -9.973569e-01
   outer loop
     vertex -8.058839e+00  8.058839e+00 -1.500000e+01
     vertex -8.058839e+00  9.218294e+00 -1.491553e+01
     vertex  8.058839e+00  8.058839e+00 -1.500000e+01
   endloop
 endfacet
 facet normal  2.157668e-01  7.878977e-02 -9.732610e-01
   outer loop
     vertex  1.039246e+01  9.249944e+00 -1.455880e+01
     vertex  1.035326e+01  8.058839e+00 -1.466392e+01
     vertex  9.218294e+00  8.058839e+00 -1.491553e+01
   endloop
 endfacet
 facet normal  3.547633e-01  7.059979e-02 -9.322868e-01
   outer loop
     vertex  1.039246e+01  9.249944e+00 -1.455880e+01
     vertex  1.143978e+01  8.058839e+00 -1.425046e+01
     vertex  1.035326e+01  8.058839e+00 -1.466392e+01
   endloop
 endfacet
 facet normal  7.246694e-02  7.246694e-02 -9.947347e-01
   outer loop
     vertex  8.058839e+00  9.218294e+00 -1.491553e+01
     vertex  9.218294e+00  8.058839e+00 -1.491553e+01
     vertex  8.058839e+00  8.058839e+00 -1.500000e+01
   endloop
 endfacet
 facet normal  7.059979e-02  3.547633e-01 -9.322868e-01
   outer loop
     vertex  8.058839e+00  1.143978e+01 -1.425046e+01
     vertex  9.249944e+00  1.039246e+01 -1.455880e+01
     vertex  8.058839e+00  1.035326e+01 -1.466392e+01
   endloop
 endfacet
 facet normal  2.842248e-02  2.163522e-01 -9.759016e-01
   outer loop
     vertex  8.909129e+00  9.790356e+00 -1.476395e+01
     vertex  8.058839e+00  9.218294e+00 -1.491553e+01
     vertex  8.058839e+00  1.035326e+01 -1.466392e+01
   endloop
 endfacet
 facet normal  2.079430e-01  2.079430e-01 -9.557821e-01
   outer loop
     vertex  8.909129e+00  9.790356e+00 -1.476395e+01
     vertex  9.249944e+00  1.039246e+01 -1.455880e+01
     vertex  1.039246e+01  9.249944e+00 -1.455880e+01
   endloop
 endfacet
 facet normal  1.778570e-01  1.172926e-01 -9.770411e-01
   outer loop
     vertex  8.909129e+00  9.790356e+00 -1.476395e+01
     vertex  1.039246e+01  9.249944e+00 -1.455880e+01
     vertex  9.218294e+00  8.058839e+00 -1.491553e+01
   endloop
 endfacet
 facet normal  1.053848e-01  1.053848e-01 -9.888317e-01
   outer loop
     vertex  8.909129e+00  9.790356e+00 -1.476395e+01
     vertex  9.218294e+00  8.058839e+00 -1.491553e+01
     vertex  8.058839e+00  9.218294e+00 -1.491553e+01
   endloop
 endfacet
 facet normal  7.505380e-02  2.832711e-01 -9.560985e-01
   outer loop
     vertex  8.909129e+00  9.790356e+00 -1.476395e+01
     vertex  8.058839e+00  1.035326e+01 -1.466392e+01
     vertex  9.249944e+00  1.039246e+01 -1.455880e+01
   endloop
 endfacet
 facet normal  3.556508e-01  0.000000e+00 -9.346189e-01
   outer loop
     vertex  1.035326e+01  8.058839e+00 -1.466392e+01
     vertex  1.143978e+01  8.058839e+00 -1.425046e+01
     vertex  1.143978e+01 -8.058839e+00 -1.425046e+01
   endloop
 endfacet
 facet normal  3.556508e-01  2.461219e-17 -9.346189e-01
   outer loop
     vertex  1.035326e+01  8.058839e+00 -1.466392e+01
     vertex  1.143978e+01 -8.058839e+00 -1.425046e+01
     vertex  1.035326e+01 -8.058839e+00 -1.466392e+01
   endloop
 endfacet
 facet normal  2.164396e-01 -4.770836e-17 -9.762960e-01
   outer loop
     vertex  9.218294e+00  8.058839e+00 -1.491553e+01
     vertex  1.035326e+01 -8.058839e+00 -1.466392e+01
     vertex  9.218294e+00 -8.058839e+00 -1.491553e+01
   endloop
 endfacet
 facet normal  2.164396e-01  5.925220e-17 -9.762960e-01
   outer loop
     vertex  9.218294e+00  8.058839e+00 -1.491553e+01
     vertex  1.035326e+01  8.058839e+00 -1.466392e+01
     vertex  1.035326e+01 -8.058839e+00 -1.466392e+01
   endloop
 endfacet
 facet normal  7.265797e-02  0.000000e+00 -9.973569e-01
   outer loop
     vertex  8.058839e+00  8.058839e+00 -1.500000e+01
     vertex  9.218294e+00 -8.058839e+00 -1.491553e+01
     vertex  8.058839e+00 -8.058839e+00 -1.500000e+01
   endloop
 endfacet
 facet normal  7.265797e-02 -1.629436e-17 -9.973569e-01
   outer loop
     vertex  8.058839e+00  8.058839e+00 -1.500000e+01
     vertex  9.218294e+00  8.058839e+00 -1.491553e+01
     vertex  9.218294e+00 -8.058839e+00 -1.491553e+01
   endloop
 endfacet
 facet normal  4.089861e-03 -7.265736e-02 -9.973486e-01
   outer loop
     vertex  3.701167e+01 -4.261410e+01 -8.446689e-02
     vertex  3.827717e+01 -4.370232e+01  0.000000e+00
     vertex  3.701167e+01 -4.377356e+01  0.000000e+00
   endloop
 endfacet
 facet normal  7.265650e-02 -6.360959e-03 -9.973367e-01
   outer loop
     vertex  4.261410e+01 -3.701167e+01 -8.446689e-02
     vertex  4.377356e+01 -3.701167e+01  0.000000e+00
     vertex  4.360960e+01 -3.888446e+01  0.000000e+00
   endloop
 endfacet
 facet normal  3.554145e-01 -3.644305e-02 -9.339981e-01
   outer loop
     vertex  4.039261e+01 -3.701167e+01 -7.495377e-01
     vertex  4.147913e+01 -3.701167e+01 -3.360839e-01
     vertex  4.060710e+01 -3.782099e+01 -6.363381e-01
   endloop
 endfacet
 facet normal  1.096899e-01 -2.336582e-01 -9.661118e-01
   outer loop
     vertex  3.957123e+01 -4.199027e+01 -1.211035e-01
     vertex  3.863611e+01 -4.072583e+01 -5.330861e-01
     vertex  3.928507e+01 -4.071114e+01 -4.629563e-01
   endloop
 endfacet
 facet normal  3.113817e-02 -8.356283e-02 -9.960159e-01
   outer loop
     vertex  3.957123e+01 -4.199027e+01 -1.211035e-01
     vertex  4.067362e+01 -4.302296e+01  0.000000e+00
     vertex  3.942901e+01 -4.348675e+01  0.000000e+00
   endloop
 endfacet
 facet normal  1.575412e-01 -1.778280e-01 -9.713691e-01
   outer loop
     vertex  4.114650e+01 -4.114650e+01 -1.012302e-01
     vertex  3.996033e+01 -4.050444e+01 -4.111506e-01
     vertex  4.023004e+01 -4.031241e+01 -4.025604e-01
   endloop
 endfacet
 facet normal  1.712717e-01 -1.628508e-01 -9.716716e-01
   outer loop
     vertex  4.114650e+01 -4.114650e+01 -1.012302e-01
     vertex  4.023004e+01 -4.031241e+01 -4.025604e-01
     vertex  4.042881e+01 -4.008344e+01 -4.059000e-01
   endloop
 endfacet
 facet normal  5.982109e-02 -5.579141e-02 -9.966488e-01
   outer loop
     vertex  4.114650e+01 -4.114650e+01 -1.012302e-01
     vertex  4.255673e+01 -4.144276e+01  0.000000e+00
     vertex  4.171977e+01 -4.234018e+01  0.000000e+00
   endloop
 endfacet
 facet normal  2.297556e-01 -1.233131e-01 -9.654047e-01
   outer loop
     vertex  4.199027e+01 -3.957123e+01 -1.211035e-01
     vertex  4.067793e+01 -3.948019e+01 -4.450547e-01
     vertex  4.072813e+01 -3.910758e+01 -4.807028e-01
   endloop
 endfacet
 facet normal  2.367861e-01 -1.045724e-01 -9.659177e-01
   outer loop
     vertex  4.199027e+01 -3.957123e+01 -1.211035e-01
     vertex  4.072813e+01 -3.910758e+01 -4.807028e-01
     vertex  4.071840e+01 -3.853961e+01 -5.445772e-01
   endloop
 endfacet
 facet normal  8.523127e-02 -2.532623e-02 -9.960393e-01
   outer loop
     vertex  4.199027e+01 -3.957123e+01 -1.211035e-01
     vertex  4.360960e+01 -3.888446e+01  0.000000e+00
     vertex  4.317743e+01 -4.033886e+01  0.000000e+00
   endloop
 endfacet
 facet normal  1.498936e-02 -8.008897e-02 -9.966750e-01
   outer loop
     vertex  3.846729e+01 -4.238271e+01 -1.031797e-01
     vertex  3.942901e+01 -4.348675e+01  0.000000e+00
     vertex  3.827717e+01 -4.370232e+01  0.000000e+00
   endloop
 endfacet
 facet normal  1.292553e-02 -8.187590e-02 -9.965587e-01
   outer loop
     vertex  3.846729e+01 -4.238271e+01 -1.031797e-01
     vertex  3.957123e+01 -4.199027e+01 -1.211035e-01
     vertex  3.942901e+01 -4.348675e+01  0.000000e+00
   endloop
 endfacet
 facet normal -4.348635e-04 -7.788920e-02 -9.969619e-01
   outer loop
     vertex  3.846729e+01 -4.238271e+01 -1.031797e-01
     vertex  3.827717e+01 -4.370232e+01  0.000000e+00
     vertex  3.701167e+01 -4.261410e+01 -8.446689e-02
   endloop
 endfacet
 facet normal  6.823980e-02 -2.878390e-01 -9.552445e-01
   outer loop
     vertex  3.838603e+01 -4.188473e+01 -2.017432e-01
     vertex  3.701167e+01 -4.039261e+01 -7.495377e-01
     vertex  3.863611e+01 -4.072583e+01 -5.330861e-01
   endloop
 endfacet
 facet normal -1.360174e-02 -3.556179e-01 -9.345325e-01
   outer loop
     vertex  3.838603e+01 -4.188473e+01 -2.017432e-01
     vertex  3.701167e+01 -4.147913e+01 -3.360839e-01
     vertex  3.701167e+01 -4.039261e+01 -7.495377e-01
   endloop
 endfacet
 facet normal  3.153906e-02 -2.163319e-01 -9.758103e-01
   outer loop
     vertex  3.838603e+01 -4.188473e+01 -2.017432e-01
     vertex  3.701167e+01 -4.261410e+01 -8.446689e-02
     vertex  3.701167e+01 -4.147913e+01 -3.360839e-01
   endloop
 endfacet
 facet normal  1.779952e-02 -1.913351e-01 -9.813634e-01
   outer loop
     vertex  3.838603e+01 -4.188473e+01 -2.017432e-01
     vertex  3.846729e+01 -4.238271e+01 -1.031797e-01
     vertex  3.701167e+01 -4.261410e+01 -8.446689e-02
   endloop
 endfacet
 facet normal  4.003828e-02 -2.826518e-01 -9.583866e-01
   outer loop
     vertex  3.838603e+01 -4.188473e+01 -2.017432e-01
     vertex  3.863611e+01 -4.072583e+01 -5.330861e-01
     vertex  3.957123e+01 -4.199027e+01 -1.211035e-01
   endloop
 endfacet
 facet normal  5.019876e-02 -1.860283e-01 -9.812612e-01
   outer loop
     vertex  3.838603e+01 -4.188473e+01 -2.017432e-01
     vertex  3.957123e+01 -4.199027e+01 -1.211035e-01
     vertex  3.846729e+01 -4.238271e+01 -1.031797e-01
   endloop
 endfacet
 facet normal  2.313662e-02 -3.544961e-02 -9.991036e-01
   outer loop
     vertex  4.104445e+01 -4.205120e+01 -2.589207e-02
     vertex  4.171977e+01 -4.234018e+01  0.000000e+00
     vertex  4.067362e+01 -4.302296e+01  0.000000e+00
   endloop
 endfacet
 facet normal  6.233795e-02 -5.034748e-02 -9.967844e-01
   outer loop
     vertex  4.104445e+01 -4.205120e+01 -2.589207e-02
     vertex  4.067362e+01 -4.302296e+01  0.000000e+00
     vertex  3.957123e+01 -4.199027e+01 -1.211035e-01
   endloop
 endfacet
 facet normal  2.571861e-03 -8.327473e-02 -9.965233e-01
   outer loop
     vertex  4.104445e+01 -4.205120e+01 -2.589207e-02
     vertex  4.114650e+01 -4.114650e+01 -1.012302e-01
     vertex  4.171977e+01 -4.234018e+01  0.000000e+00
   endloop
 endfacet
 facet normal  1.292953e-01 -2.057164e-01 -9.700327e-01
   outer loop
     vertex  4.046937e+01 -4.165030e+01 -1.059322e-01
     vertex  3.928507e+01 -4.071114e+01 -4.629563e-01
     vertex  3.969598e+01 -4.061915e+01 -4.276948e-01
   endloop
 endfacet
 facet normal  1.449315e-01 -1.940493e-01 -9.702266e-01
   outer loop
     vertex  4.046937e+01 -4.165030e+01 -1.059322e-01
     vertex  3.969598e+01 -4.061915e+01 -4.276948e-01
     vertex  3.996033e+01 -4.050444e+01 -4.111506e-01
   endloop
 endfacet
 facet normal  7.469117e-02 -9.111872e-02 -9.930350e-01
   outer loop
     vertex  4.046937e+01 -4.165030e+01 -1.059322e-01
     vertex  4.114650e+01 -4.114650e+01 -1.012302e-01
     vertex  4.104445e+01 -4.205120e+01 -2.589207e-02
   endloop
 endfacet
 facet normal  5.943747e-02 -1.127623e-01 -9.918427e-01
   outer loop
     vertex  4.046937e+01 -4.165030e+01 -1.059322e-01
     vertex  4.104445e+01 -4.205120e+01 -2.589207e-02
     vertex  3.957123e+01 -4.199027e+01 -1.211035e-01
   endloop
 endfacet
 facet normal  1.051758e-01 -2.347326e-01 -9.663533e-01
   outer loop
     vertex  4.046937e+01 -4.165030e+01 -1.059322e-01
     vertex  3.957123e+01 -4.199027e+01 -1.211035e-01
     vertex  3.928507e+01 -4.071114e+01 -4.629563e-01
   endloop
 endfacet
 facet normal  1.495374e-01 -1.919293e-01 -9.699493e-01
   outer loop
     vertex  4.046937e+01 -4.165030e+01 -1.059322e-01
     vertex  3.996033e+01 -4.050444e+01 -4.111506e-01
     vertex  4.114650e+01 -4.114650e+01 -1.012302e-01
   endloop
 endfacet
 facet normal  3.810992e-02 -2.142814e-02 -9.990438e-01
   outer loop
     vertex  4.237432e+01 -4.048668e+01 -2.746506e-02
     vertex  4.317743e+01 -4.033886e+01  0.000000e+00
     vertex  4.255673e+01 -4.144276e+01  0.000000e+00
   endloop
 endfacet
 facet normal  4.900251e-02 -8.126747e-02 -9.954870e-01
   outer loop
     vertex  4.237432e+01 -4.048668e+01 -2.746506e-02
     vertex  4.199027e+01 -3.957123e+01 -1.211035e-01
     vertex  4.317743e+01 -4.033886e+01  0.000000e+00
   endloop
 endfacet
 facet normal  1.902062e-01 -1.518706e-01 -9.699262e-01
   outer loop
     vertex  4.165030e+01 -4.046937e+01 -1.059322e-01
     vertex  4.042881e+01 -4.008344e+01 -4.059000e-01
     vertex  4.057817e+01 -3.980579e+01 -4.200850e-01
   endloop
 endfacet
 facet normal  2.002746e-01 -1.357738e-01 -9.702863e-01
   outer loop
     vertex  4.165030e+01 -4.046937e+01 -1.059322e-01
     vertex  4.057817e+01 -3.980579e+01 -4.200850e-01
     vertex  4.067793e+01 -3.948019e+01 -4.450547e-01
   endloop
 endfacet
 facet normal  1.911815e-01 -1.489827e-01 -9.701823e-01
   outer loop
     vertex  4.165030e+01 -4.046937e+01 -1.059322e-01
     vertex  4.114650e+01 -4.114650e+01 -1.012302e-01
     vertex  4.042881e+01 -4.008344e+01 -4.059000e-01
   endloop
 endfacet
 facet normal  6.062297e-02 -5.202745e-02 -9.968039e-01
   outer loop
     vertex  4.165030e+01 -4.046937e+01 -1.059322e-01
     vertex  4.255673e+01 -4.144276e+01  0.000000e+00
     vertex  4.114650e+01 -4.114650e+01 -1.012302e-01
   endloop
 endfacet
 facet normal  1.062250e-01 -5.697755e-02 -9.927083e-01
   outer loop
     vertex  4.165030e+01 -4.046937e+01 -1.059322e-01
     vertex  4.199027e+01 -3.957123e+01 -1.211035e-01
     vertex  4.237432e+01 -4.048668e+01 -2.746506e-02
   endloop
 endfacet
 facet normal  2.315515e-01 -1.039868e-01 -9.672490e-01
   outer loop
     vertex  4.165030e+01 -4.046937e+01 -1.059322e-01
     vertex  4.067793e+01 -3.948019e+01 -4.450547e-01
     vertex  4.199027e+01 -3.957123e+01 -1.211035e-01
   endloop
 endfacet
 facet normal  1.075533e-01 -8.038786e-03 -9.941668e-01
   outer loop
     vertex  4.165030e+01 -4.046937e+01 -1.059322e-01
     vertex  4.237432e+01 -4.048668e+01 -2.746506e-02
     vertex  4.255673e+01 -4.144276e+01  0.000000e+00
   endloop
 endfacet
 facet normal  7.969472e-02 -1.214712e-02 -9.967453e-01
   outer loop
     vertex  4.238271e+01 -3.846729e+01 -1.031797e-01
     vertex  4.360960e+01 -3.888446e+01  0.000000e+00
     vertex  4.199027e+01 -3.957123e+01 -1.211035e-01
   endloop
 endfacet
 facet normal  8.363914e-02 -4.851626e-04 -9.964960e-01
   outer loop
     vertex  4.238271e+01 -3.846729e+01 -1.031797e-01
     vertex  4.261410e+01 -3.701167e+01 -8.446689e-02
     vertex  4.360960e+01 -3.888446e+01  0.000000e+00
   endloop
 endfacet
 facet normal  2.904734e-01 -7.680344e-02 -9.537958e-01
   outer loop
     vertex  4.188473e+01 -3.838603e+01 -2.017432e-01
     vertex  4.071840e+01 -3.853961e+01 -5.445772e-01
     vertex  4.060710e+01 -3.782099e+01 -6.363381e-01
   endloop
 endfacet
 facet normal  2.163319e-01 -3.153906e-02 -9.758103e-01
   outer loop
     vertex  4.188473e+01 -3.838603e+01 -2.017432e-01
     vertex  4.147913e+01 -3.701167e+01 -3.360839e-01
     vertex  4.261410e+01 -3.701167e+01 -8.446689e-02
   endloop
 endfacet
 facet normal  2.865869e-01 -3.960951e-02 -9.572351e-01
   outer loop
     vertex  4.188473e+01 -3.838603e+01 -2.017432e-01
     vertex  4.199027e+01 -3.957123e+01 -1.211035e-01
     vertex  4.071840e+01 -3.853961e+01 -5.445772e-01
   endloop
 endfacet
 facet normal  1.860283e-01 -5.019876e-02 -9.812612e-01
   outer loop
     vertex  4.188473e+01 -3.838603e+01 -2.017432e-01
     vertex  4.238271e+01 -3.846729e+01 -1.031797e-01
     vertex  4.199027e+01 -3.957123e+01 -1.211035e-01
   endloop
 endfacet
 facet normal  1.913351e-01 -1.779952e-02 -9.813634e-01
   outer loop
     vertex  4.188473e+01 -3.838603e+01 -2.017432e-01
     vertex  4.261410e+01 -3.701167e+01 -8.446689e-02
     vertex  4.238271e+01 -3.846729e+01 -1.031797e-01
   endloop
 endfacet
 facet normal  3.231735e-01  2.873057e-03 -9.463354e-01
   outer loop
     vertex  4.188473e+01 -3.838603e+01 -2.017432e-01
     vertex  4.060710e+01 -3.782099e+01 -6.363381e-01
     vertex  4.147913e+01 -3.701167e+01 -3.360839e-01
   endloop
 endfacet
 facet normal  7.422585e-02 -3.583949e-01 -9.306147e-01
   outer loop
     vertex  3.863611e+01 -4.072583e+01 -5.330861e-01
     vertex  8.058839e+00 -1.143978e+01 -1.425046e+01
     vertex  9.249944e+00 -1.039246e+01 -1.455880e+01
   endloop
 endfacet
 facet normal  4.358054e-02 -3.860899e-01 -9.214311e-01
   outer loop
     vertex  3.863611e+01 -4.072583e+01 -5.330861e-01
     vertex  3.701167e+01 -4.039261e+01 -7.495377e-01
     vertex  8.058839e+00 -1.143978e+01 -1.425046e+01
   endloop
 endfacet
 facet normal  1.088229e-01 -3.284070e-01 -9.382465e-01
   outer loop
     vertex  3.928507e+01 -4.071114e+01 -4.629563e-01
     vertex  3.863611e+01 -4.072583e+01 -5.330861e-01
     vertex  9.249944e+00 -1.039246e+01 -1.455880e+01
   endloop
 endfacet
 facet normal  1.468073e-01 -2.937103e-01 -9.445538e-01
   outer loop
     vertex  3.969598e+01 -4.061915e+01 -4.276948e-01
     vertex  3.928507e+01 -4.071114e+01 -4.629563e-01
     vertex  9.249944e+00 -1.039246e+01 -1.455880e+01
   endloop
 endfacet
 facet normal  1.750664e-01 -2.667341e-01 -9.477366e-01
   outer loop
     vertex  3.996033e+01 -4.050444e+01 -4.111506e-01
     vertex  3.969598e+01 -4.061915e+01 -4.276948e-01
     vertex  9.249944e+00 -1.039246e+01 -1.455880e+01
   endloop
 endfacet
 facet normal  2.208246e-01 -2.208246e-01 -9.499858e-01
   outer loop
     vertex  4.023004e+01 -4.031241e+01 -4.025604e-01
     vertex  9.249944e+00 -1.039246e+01 -1.455880e+01
     vertex  1.039246e+01 -9.249944e+00 -1.455880e+01
   endloop
 endfacet
 facet normal  2.015177e-01 -2.405765e-01 -9.494807e-01
   outer loop
     vertex  4.023004e+01 -4.031241e+01 -4.025604e-01
     vertex  3.996033e+01 -4.050444e+01 -4.111506e-01
     vertex  9.249944e+00 -1.039246e+01 -1.455880e+01
   endloop
 endfacet
 facet normal  2.291450e-01 -2.127717e-01 -9.498530e-01
   outer loop
     vertex  4.042881e+01 -4.008344e+01 -4.059000e-01
     vertex  4.023004e+01 -4.031241e+01 -4.025604e-01
     vertex  1.039246e+01 -9.249944e+00 -1.455880e+01
   endloop
 endfacet
 facet normal  2.559123e-01 -1.861270e-01 -9.486125e-01
   outer loop
     vertex  4.057817e+01 -3.980579e+01 -4.200850e-01
     vertex  4.042881e+01 -4.008344e+01 -4.059000e-01
     vertex  1.039246e+01 -9.249944e+00 -1.455880e+01
   endloop
 endfacet
 facet normal  2.821782e-01 -1.590131e-01 -9.460921e-01
   outer loop
     vertex  4.067793e+01 -3.948019e+01 -4.450547e-01
     vertex  4.057817e+01 -3.980579e+01 -4.200850e-01
     vertex  1.039246e+01 -9.249944e+00 -1.455880e+01
   endloop
 endfacet
 facet normal  3.077676e-01 -1.316134e-01 -9.423147e-01
   outer loop
     vertex  4.072813e+01 -3.910758e+01 -4.807028e-01
     vertex  4.067793e+01 -3.948019e+01 -4.450547e-01
     vertex  1.039246e+01 -9.249944e+00 -1.455880e+01
   endloop
 endfacet
 facet normal  3.583817e-01 -7.421270e-02 -9.306208e-01
   outer loop
     vertex  4.071840e+01 -3.853961e+01 -5.445772e-01
     vertex  1.039246e+01 -9.249944e+00 -1.455880e+01
     vertex  1.143978e+01 -8.058839e+00 -1.425046e+01
   endloop
 endfacet
 facet normal  3.365791e-01 -9.954189e-02 -9.363791e-01
   outer loop
     vertex  4.071840e+01 -3.853961e+01 -5.445772e-01
     vertex  4.072813e+01 -3.910758e+01 -4.807028e-01
     vertex  1.039246e+01 -9.249944e+00 -1.455880e+01
   endloop
 endfacet
 facet normal  3.703943e-01 -6.098754e-02 -9.268703e-01
   outer loop
     vertex  4.060710e+01 -3.782099e+01 -6.363381e-01
     vertex  4.071840e+01 -3.853961e+01 -5.445772e-01
     vertex  1.143978e+01 -8.058839e+00 -1.425046e+01
   endloop
 endfacet
 facet normal  4.058309e-01 -2.024551e-02 -9.137239e-01
   outer loop
     vertex  4.039261e+01 -3.701167e+01 -7.495377e-01
     vertex  4.060710e+01 -3.782099e+01 -6.363381e-01
     vertex  1.143978e+01 -8.058839e+00 -1.425046e+01
   endloop
 endfacet
 facet normal  3.556508e-01 -5.607073e-18 -9.346189e-01
   outer loop
     vertex  4.039261e+01  3.701167e+01 -7.495377e-01
     vertex  4.147913e+01 -3.701167e+01 -3.360839e-01
     vertex  4.039261e+01 -3.701167e+01 -7.495377e-01
   endloop
 endfacet
 facet normal  2.164396e-01  2.342843e-17 -9.762960e-01
   outer loop
     vertex  4.147913e+01  3.701167e+01 -3.360839e-01
     vertex  4.261410e+01 -3.701167e+01 -8.446689e-02
     vertex  4.147913e+01 -3.701167e+01 -3.360839e-01
   endloop
 endfacet
 facet normal  3.556508e-01  2.242829e-17 -9.346189e-01
   outer loop
     vertex  4.147913e+01  3.701167e+01 -3.360839e-01
     vertex  4.147913e+01 -3.701167e+01 -3.360839e-01
     vertex  4.039261e+01  3.701167e+01 -7.495377e-01
   endloop
 endfacet
 facet normal  7.265797e-02  4.992547e-18 -9.973569e-01
   outer loop
     vertex  4.261410e+01  3.701167e+01 -8.446689e-02
     vertex  4.377356e+01 -3.701167e+01  0.000000e+00
     vertex  4.261410e+01 -3.701167e+01 -8.446689e-02
   endloop
 endfacet
 facet normal  2.164396e-01 -9.061615e-18 -9.762960e-01
   outer loop
     vertex  4.261410e+01  3.701167e+01 -8.446689e-02
     vertex  4.261410e+01 -3.701167e+01 -8.446689e-02
     vertex  4.147913e+01  3.701167e+01 -3.360839e-01
   endloop
 endfacet
 facet normal  7.265797e-02  0.000000e+00 -9.973569e-01
   outer loop
     vertex  4.377356e+01  3.701167e+01  0.000000e+00
     vertex  4.377356e+01 -3.701167e+01  0.000000e+00
     vertex  4.261410e+01  3.701167e+01 -8.446689e-02
   endloop
 endfacet
 facet normal  4.226183e-01  0.000000e+00 -9.063078e-01
   outer loop
     vertex  1.143978e+01  8.058839e+00 -1.425046e+01
     vertex  4.039261e+01 -3.701167e+01 -7.495377e-01
     vertex  1.143978e+01 -8.058839e+00 -1.425046e+01
   endloop
 endfacet
 facet normal  4.226183e-01 -5.437225e-18 -9.063078e-01
   outer loop
     vertex  4.039261e+01  3.701167e+01 -7.495377e-01
     vertex  4.039261e+01 -3.701167e+01 -7.495377e-01
     vertex  1.143978e+01  8.058839e+00 -1.425046e+01
   endloop
 endfacet
 facet normal  6.098754e-02  3.703943e-01 -9.268703e-01
   outer loop
     vertex  8.058839e+00  1.143978e+01 -1.425046e+01
     vertex  3.782099e+01  4.060710e+01 -6.363381e-01
     vertex  3.853961e+01  4.071840e+01 -5.445772e-01
   endloop
 endfacet
 facet normal  2.024551e-02  4.058309e-01 -9.137239e-01
   outer loop
     vertex  8.058839e+00  1.143978e+01 -1.425046e+01
     vertex  3.701167e+01  4.039261e+01 -7.495377e-01
     vertex  3.782099e+01  4.060710e+01 -6.363381e-01
   endloop
 endfacet
 facet normal  2.127717e-01  2.291450e-01 -9.498530e-01
   outer loop
     vertex  9.249944e+00  1.039246e+01 -1.455880e+01
     vertex  4.008344e+01  4.042881e+01 -4.059000e-01
     vertex  4.031241e+01  4.023004e+01 -4.025604e-01
   endloop
 endfacet
 facet normal  1.861270e-01  2.559123e-01 -9.486125e-01
   outer loop
     vertex  9.249944e+00  1.039246e+01 -1.455880e+01
     vertex  3.980579e+01  4.057817e+01 -4.200850e-01
     vertex  4.008344e+01  4.042881e+01 -4.059000e-01
   endloop
 endfacet
 facet normal  1.590131e-01  2.821782e-01 -9.460921e-01
   outer loop
     vertex  9.249944e+00  1.039246e+01 -1.455880e+01
     vertex  3.948019e+01  4.067793e+01 -4.450547e-01
     vertex  3.980579e+01  4.057817e+01 -4.200850e-01
   endloop
 endfacet
 facet normal  1.316134e-01  3.077676e-01 -9.423147e-01
   outer loop
     vertex  9.249944e+00  1.039246e+01 -1.455880e+01
     vertex  3.910758e+01  4.072813e+01 -4.807028e-01
     vertex  3.948019e+01  4.067793e+01 -4.450547e-01
   endloop
 endfacet
 facet normal  9.954189e-02  3.365791e-01 -9.363791e-01
   outer loop
     vertex  9.249944e+00  1.039246e+01 -1.455880e+01
     vertex  3.853961e+01  4.071840e+01 -5.445772e-01
     vertex  3.910758e+01  4.072813e+01 -4.807028e-01
   endloop
 endfacet
 facet normal  7.421270e-02  3.583817e-01 -9.306208e-01
   outer loop
     vertex  9.249944e+00  1.039246e+01 -1.455880e+01
     vertex  8.058839e+00  1.143978e+01 -1.425046e+01
     vertex  3.853961e+01  4.071840e+01 -5.445772e-01
   endloop
 endfacet
 facet normal  3.284070e-01  1.088229e-01 -9.382465e-01
   outer loop
     vertex  1.039246e+01  9.249944e+00 -1.455880e+01
     vertex  4.071114e+01  3.928507e+01 -4.629563e-01
     vertex  4.072583e+01  3.863611e+01 -5.330861e-01
   endloop
 endfacet
 facet normal  2.937103e-01  1.468073e-01 -9.445538e-01
   outer loop
     vertex  1.039246e+01  9.249944e+00 -1.455880e+01
     vertex  4.061915e+01  3.969598e+01 -4.276948e-01
     vertex  4.071114e+01  3.928507e+01 -4.629563e-01
   endloop
 endfacet
 facet normal  2.667341e-01  1.750664e-01 -9.477366e-01
   outer loop
     vertex  1.039246e+01  9.249944e+00 -1.455880e+01
     vertex  4.050444e+01  3.996033e+01 -4.111506e-01
     vertex  4.061915e+01  3.969598e+01 -4.276948e-01
   endloop
 endfacet
 facet normal  2.405765e-01  2.015177e-01 -9.494807e-01
   outer loop
     vertex  1.039246e+01  9.249944e+00 -1.455880e+01
     vertex  4.031241e+01  4.023004e+01 -4.025604e-01
     vertex  4.050444e+01  3.996033e+01 -4.111506e-01
   endloop
 endfacet
 facet normal  2.208246e-01  2.208246e-01 -9.499858e-01
   outer loop
     vertex  1.039246e+01  9.249944e+00 -1.455880e+01
     vertex  9.249944e+00  1.039246e+01 -1.455880e+01
     vertex  4.031241e+01  4.023004e+01 -4.025604e-01
   endloop
 endfacet
 facet normal  3.860899e-01  4.358054e-02 -9.214311e-01
   outer loop
     vertex  1.143978e+01  8.058839e+00 -1.425046e+01
     vertex  4.072583e+01  3.863611e+01 -5.330861e-01
     vertex  4.039261e+01  3.701167e+01 -7.495377e-01
   endloop
 endfacet
 facet normal  3.583949e-01  7.422585e-02 -9.306147e-01
   outer loop
     vertex  1.143978e+01  8.058839e+00 -1.425046e+01
     vertex  1.039246e+01  9.249944e+00 -1.455880e+01
     vertex  4.072583e+01  3.863611e+01 -5.330861e-01
   endloop
 endfacet
 facet normal  7.265736e-02  4.089861e-03 -9.973486e-01
   outer loop
     vertex  4.261410e+01  3.701167e+01 -8.446689e-02
     vertex  4.370232e+01  3.827717e+01  0.000000e+00
     vertex  4.377356e+01  3.701167e+01  0.000000e+00
   endloop
 endfacet
 facet normal  6.360959e-03  7.265650e-02 -9.973367e-01
   outer loop
     vertex  3.701167e+01  4.261410e+01 -8.446689e-02
     vertex  3.701167e+01  4.377356e+01  0.000000e+00
     vertex  3.888446e+01  4.360960e+01  0.000000e+00
   endloop
 endfacet
 facet normal  3.644305e-02  3.554145e-01 -9.339981e-01
   outer loop
     vertex  3.701167e+01  4.039261e+01 -7.495377e-01
     vertex  3.701167e+01  4.147913e+01 -3.360839e-01
     vertex  3.782099e+01  4.060710e+01 -6.363381e-01
   endloop
 endfacet
 facet normal  2.336582e-01  1.096899e-01 -9.661118e-01
   outer loop
     vertex  4.199027e+01  3.957123e+01 -1.211035e-01
     vertex  4.072583e+01  3.863611e+01 -5.330861e-01
     vertex  4.071114e+01  3.928507e+01 -4.629563e-01
   endloop
 endfacet
 facet normal  8.356283e-02  3.113817e-02 -9.960159e-01
   outer loop
     vertex  4.199027e+01  3.957123e+01 -1.211035e-01
     vertex  4.302296e+01  4.067362e+01  0.000000e+00
     vertex  4.348675e+01  3.942901e+01  0.000000e+00
   endloop
 endfacet
 facet normal  1.778280e-01  1.575412e-01 -9.713691e-01
   outer loop
     vertex  4.114650e+01  4.114650e+01 -1.012302e-01
     vertex  4.050444e+01  3.996033e+01 -4.111506e-01
     vertex  4.031241e+01  4.023004e+01 -4.025604e-01
   endloop
 endfacet
 facet normal  1.628508e-01  1.712717e-01 -9.716716e-01
   outer loop
     vertex  4.114650e+01  4.114650e+01 -1.012302e-01
     vertex  4.031241e+01  4.023004e+01 -4.025604e-01
     vertex  4.008344e+01  4.042881e+01 -4.059000e-01
   endloop
 endfacet
 facet normal  5.579141e-02  5.982109e-02 -9.966488e-01
   outer loop
     vertex  4.114650e+01  4.114650e+01 -1.012302e-01
     vertex  4.144276e+01  4.255673e+01  0.000000e+00
     vertex  4.234018e+01  4.171977e+01  0.000000e+00
   endloop
 endfacet
 facet normal  1.233131e-01  2.297556e-01 -9.654047e-01
   outer loop
     vertex  3.957123e+01  4.199027e+01 -1.211035e-01
     vertex  3.948019e+01  4.067793e+01 -4.450547e-01
     vertex  3.910758e+01  4.072813e+01 -4.807028e-01
   endloop
 endfacet
 facet normal  1.045724e-01  2.367861e-01 -9.659177e-01
   outer loop
     vertex  3.957123e+01  4.199027e+01 -1.211035e-01
     vertex  3.910758e+01  4.072813e+01 -4.807028e-01
     vertex  3.853961e+01  4.071840e+01 -5.445772e-01
   endloop
 endfacet
 facet normal  2.532623e-02  8.523127e-02 -9.960393e-01
   outer loop
     vertex  3.957123e+01  4.199027e+01 -1.211035e-01
     vertex  3.888446e+01  4.360960e+01  0.000000e+00
     vertex  4.033886e+01  4.317743e+01  0.000000e+00
   endloop
 endfacet
 facet normal  2.163879e-01  2.185018e-02 -9.760629e-01
   outer loop
     vertex  4.238271e+01  3.846729e+01 -1.031797e-01
     vertex  4.261410e+01  3.701167e+01 -8.446689e-02
     vertex  4.147913e+01  3.701167e+01 -3.360839e-01
   endloop
 endfacet
 facet normal  8.008897e-02  1.498936e-02 -9.966750e-01
   outer loop
     vertex  4.238271e+01  3.846729e+01 -1.031797e-01
     vertex  4.348675e+01  3.942901e+01  0.000000e+00
     vertex  4.370232e+01  3.827717e+01  0.000000e+00
   endloop
 endfacet
 facet normal  8.187590e-02  1.292553e-02 -9.965587e-01
   outer loop
     vertex  4.238271e+01  3.846729e+01 -1.031797e-01
     vertex  4.199027e+01  3.957123e+01 -1.211035e-01
     vertex  4.348675e+01  3.942901e+01  0.000000e+00
   endloop
 endfacet
 facet normal  7.788920e-02 -4.348635e-04 -9.969619e-01
   outer loop
     vertex  4.238271e+01  3.846729e+01 -1.031797e-01
     vertex  4.370232e+01  3.827717e+01  0.000000e+00
     vertex  4.261410e+01  3.701167e+01 -8.446689e-02
   endloop
 endfacet
 facet normal  2.878390e-01  6.823980e-02 -9.552445e-01
   outer loop
     vertex  4.188473e+01  3.838603e+01 -2.017432e-01
     vertex  4.039261e+01  3.701167e+01 -7.495377e-01
     vertex  4.072583e+01  3.863611e+01 -5.330861e-01
   endloop
 endfacet
 facet normal  3.556179e-01 -1.360174e-02 -9.345325e-01
   outer loop
     vertex  4.188473e+01  3.838603e+01 -2.017432e-01
     vertex  4.147913e+01  3.701167e+01 -3.360839e-01
     vertex  4.039261e+01  3.701167e+01 -7.495377e-01
   endloop
 endfacet
 facet normal  1.876296e-01  4.055629e-02 -9.814022e-01
   outer loop
     vertex  4.188473e+01  3.838603e+01 -2.017432e-01
     vertex  4.238271e+01  3.846729e+01 -1.031797e-01
     vertex  4.147913e+01  3.701167e+01 -3.360839e-01
   endloop
 endfacet
 facet normal  2.826518e-01  4.003828e-02 -9.583866e-01
   outer loop
     vertex  4.188473e+01  3.838603e+01 -2.017432e-01
     vertex  4.072583e+01  3.863611e+01 -5.330861e-01
     vertex  4.199027e+01  3.957123e+01 -1.211035e-01
   endloop
 endfacet
 facet normal  1.860283e-01  5.019876e-02 -9.812612e-01
   outer loop
     vertex  4.188473e+01  3.838603e+01 -2.017432e-01
     vertex  4.199027e+01  3.957123e+01 -1.211035e-01
     vertex  4.238271e+01  3.846729e+01 -1.031797e-01
   endloop
 endfacet
 facet normal  3.544961e-02  2.313662e-02 -9.991036e-01
   outer loop
     vertex  4.205120e+01  4.104445e+01 -2.589207e-02
     vertex  4.234018e+01  4.171977e+01  0.000000e+00
     vertex  4.302296e+01  4.067362e+01  0.000000e+00
   endloop
 endfacet
 facet normal  5.034748e-02  6.233795e-02 -9.967844e-01
   outer loop
     vertex  4.205120e+01  4.104445e+01 -2.589207e-02
     vertex  4.302296e+01  4.067362e+01  0.000000e+00
     vertex  4.199027e+01  3.957123e+01 -1.211035e-01
   endloop
 endfacet
 facet normal  8.327473e-02  2.571861e-03 -9.965233e-01
   outer loop
     vertex  4.205120e+01  4.104445e+01 -2.589207e-02
     vertex  4.114650e+01  4.114650e+01 -1.012302e-01
     vertex  4.234018e+01  4.171977e+01  0.000000e+00
   endloop
 endfacet
 facet normal  2.057164e-01  1.292953e-01 -9.700327e-01
   outer loop
     vertex  4.165030e+01  4.046937e+01 -1.059322e-01
     vertex  4.071114e+01  3.928507e+01 -4.629563e-01
     vertex  4.061915e+01  3.969598e+01 -4.276948e-01
   endloop
 endfacet
 facet normal  1.940493e-01  1.449315e-01 -9.702266e-01
   outer loop
     vertex  4.165030e+01  4.046937e+01 -1.059322e-01
     vertex  4.061915e+01  3.969598e+01 -4.276948e-01
     vertex  4.050444e+01  3.996033e+01 -4.111506e-01
   endloop
 endfacet
 facet normal  9.111872e-02  7.469117e-02 -9.930350e-01
   outer loop
     vertex  4.165030e+01  4.046937e+01 -1.059322e-01
     vertex  4.114650e+01  4.114650e+01 -1.012302e-01
     vertex  4.205120e+01  4.104445e+01 -2.589207e-02
   endloop
 endfacet
 facet normal  1.127623e-01  5.943747e-02 -9.918427e-01
   outer loop
     vertex  4.165030e+01  4.046937e+01 -1.059322e-01
     vertex  4.205120e+01  4.104445e+01 -2.589207e-02
     vertex  4.199027e+01  3.957123e+01 -1.211035e-01
   endloop
 endfacet
 facet normal  2.347326e-01  1.051758e-01 -9.663533e-01
   outer loop
     vertex  4.165030e+01  4.046937e+01 -1.059322e-01
     vertex  4.199027e+01  3.957123e+01 -1.211035e-01
     vertex  4.071114e+01  3.928507e+01 -4.629563e-01
   endloop
 endfacet
 facet normal  1.919293e-01  1.495374e-01 -9.699493e-01
   outer loop
     vertex  4.165030e+01  4.046937e+01 -1.059322e-01
     vertex  4.050444e+01  3.996033e+01 -4.111506e-01
     vertex  4.114650e+01  4.114650e+01 -1.012302e-01
   endloop
 endfacet
 facet normal  2.142814e-02  3.810992e-02 -9.990438e-01
   outer loop
     vertex  4.048668e+01  4.237432e+01 -2.746506e-02
     vertex  4.033886e+01  4.317743e+01  0.000000e+00
     vertex  4.144276e+01  4.255673e+01  0.000000e+00
   endloop
 endfacet
 facet normal  8.126747e-02  4.900251e-02 -9.954870e-01
   outer loop
     vertex  4.048668e+01  4.237432e+01 -2.746506e-02
     vertex  3.957123e+01  4.199027e+01 -1.211035e-01
     vertex  4.033886e+01  4.317743e+01  0.000000e+00
   endloop
 endfacet
 facet normal  1.518706e-01  1.902062e-01 -9.699262e-01
   outer loop
     vertex  4.046937e+01  4.165030e+01 -1.059322e-01
     vertex  4.008344e+01  4.042881e+01 -4.059000e-01
     vertex  3.980579e+01  4.057817e+01 -4.200850e-01
   endloop
 endfacet
 facet normal  1.357738e-01  2.002746e-01 -9.702863e-01
   outer loop
     vertex  4.046937e+01  4.165030e+01 -1.059322e-01
     vertex  3.980579e+01  4.057817e+01 -4.200850e-01
     vertex  3.948019e+01  4.067793e+01 -4.450547e-01
   endloop
 endfacet
 facet normal  1.489827e-01  1.911815e-01 -9.701823e-01
   outer loop
     vertex  4.046937e+01  4.165030e+01 -1.059322e-01
     vertex  4.114650e+01  4.114650e+01 -1.012302e-01
     vertex  4.008344e+01  4.042881e+01 -4.059000e-01
   endloop
 endfacet
 facet normal  5.202745e-02  6.062297e-02 -9.968039e-01
   outer loop
     vertex  4.046937e+01  4.165030e+01 -1.059322e-01
     vertex  4.144276e+01  4.255673e+01  0.000000e+00
     vertex  4.114650e+01  4.114650e+01 -1.012302e-01
   endloop
 endfacet
 facet normal  5.697755e-02  1.062250e-01 -9.927083e-01
   outer loop
     vertex  4.046937e+01  4.165030e+01 -1.059322e-01
     vertex  3.957123e+01  4.199027e+01 -1.211035e-01
     vertex  4.048668e+01  4.237432e+01 -2.746506e-02
   endloop
 endfacet
 facet normal  1.039868e-01  2.315515e-01 -9.672490e-01
   outer loop
     vertex  4.046937e+01  4.165030e+01 -1.059322e-01
     vertex  3.948019e+01  4.067793e+01 -4.450547e-01
     vertex  3.957123e+01  4.199027e+01 -1.211035e-01
   endloop
 endfacet
 facet normal  8.038786e-03  1.075533e-01 -9.941668e-01
   outer loop
     vertex  4.046937e+01  4.165030e+01 -1.059322e-01
     vertex  4.048668e+01  4.237432e+01 -2.746506e-02
     vertex  4.144276e+01  4.255673e+01  0.000000e+00
   endloop
 endfacet
 facet normal  1.214712e-02  7.969472e-02 -9.967453e-01
   outer loop
     vertex  3.846729e+01  4.238271e+01 -1.031797e-01
     vertex  3.888446e+01  4.360960e+01  0.000000e+00
     vertex  3.957123e+01  4.199027e+01 -1.211035e-01
   endloop
 endfacet
 facet normal  4.851626e-04  8.363914e-02 -9.964960e-01
   outer loop
     vertex  3.846729e+01  4.238271e+01 -1.031797e-01
     vertex  3.701167e+01  4.261410e+01 -8.446689e-02
     vertex  3.888446e+01  4.360960e+01  0.000000e+00
   endloop
 endfacet
 facet normal  7.680344e-02  2.904734e-01 -9.537958e-01
   outer loop
     vertex  3.838603e+01  4.188473e+01 -2.017432e-01
     vertex  3.853961e+01  4.071840e+01 -5.445772e-01
     vertex  3.782099e+01  4.060710e+01 -6.363381e-01
   endloop
 endfacet
 facet normal  3.153906e-02  2.163319e-01 -9.758103e-01
   outer loop
     vertex  3.838603e+01  4.188473e+01 -2.017432e-01
     vertex  3.701167e+01  4.147913e+01 -3.360839e-01
     vertex  3.701167e+01  4.261410e+01 -8.446689e-02
   endloop
 endfacet
 facet normal  3.960951e-02  2.865869e-01 -9.572351e-01
   outer loop
     vertex  3.838603e+01  4.188473e+01 -2.017432e-01
     vertex  3.957123e+01  4.199027e+01 -1.211035e-01
     vertex  3.853961e+01  4.071840e+01 -5.445772e-01
   endloop
 endfacet
 facet normal  5.019876e-02  1.860283e-01 -9.812612e-01
   outer loop
     vertex  3.838603e+01  4.188473e+01 -2.017432e-01
     vertex  3.846729e+01  4.238271e+01 -1.031797e-01
     vertex  3.957123e+01  4.199027e+01 -1.211035e-01
   endloop
 endfacet
 facet normal  1.779952e-02  1.913351e-01 -9.813634e-01
   outer loop
     vertex  3.838603e+01  4.188473e+01 -2.017432e-01
     vertex  3.701167e+01  4.261410e+01 -8.446689e-02
     vertex  3.846729e+01  4.238271e+01 -1.031797e-01
   endloop
 endfacet
 facet normal -2.873057e-03  3.231735e-01 -9.463354e-01
   outer loop
     vertex  3.838603e+01  4.188473e+01 -2.017432e-01
     vertex  3.782099e+01  4.060710e+01 -6.363381e-01
     vertex  3.701167e+01  4.147913e+01 -3.360839e-01
   endloop
 endfacet
 facet normal -6.126830e-17  3.556508e-01 -9.346189e-01
   outer loop
     vertex -3.701167e+01  4.039261e+01 -7.495377e-01
     vertex  3.701167e+01  4.147913e+01 -3.360839e-01
     vertex  3.701167e+01  4.039261e+01 -7.495377e-01
   endloop
 endfacet
 facet normal -3.249004e-17  2.164396e-01 -9.762960e-01
   outer loop
     vertex -3.701167e+01  4.147913e+01 -3.360839e-01
     vertex  3.701167e+01  4.261410e+01 -8.446689e-02
     vertex  3.701167e+01  4.147913e+01 -3.360839e-01
   endloop
 endfacet
 facet normal -4.535272e-17  3.556508e-01 -9.346189e-01
   outer loop
     vertex -3.701167e+01  4.147913e+01 -3.360839e-01
     vertex  3.701167e+01  4.147913e+01 -3.360839e-01
     vertex -3.701167e+01  4.039261e+01 -7.495377e-01
   endloop
 endfacet
 facet normal -1.394874e-17  7.265797e-02 -9.973569e-01
   outer loop
     vertex -3.701167e+01  4.261410e+01 -8.446689e-02
     vertex  3.701167e+01  4.377356e+01  0.000000e+00
     vertex  3.701167e+01  4.261410e+01 -8.446689e-02
   endloop
 endfacet
 facet normal -4.155166e-17  2.164396e-01 -9.762960e-01
   outer loop
     vertex -3.701167e+01  4.261410e+01 -8.446689e-02
     vertex  3.701167e+01  4.261410e+01 -8.446689e-02
     vertex -3.701167e+01  4.147913e+01 -3.360839e-01
   endloop
 endfacet
 facet normal -1.394874e-17  7.265797e-02 -9.973569e-01
   outer loop
     vertex -3.701167e+01  4.377356e+01  0.000000e+00
     vertex  3.701167e+01  4.377356e+01  0.000000e+00
     vertex -3.701167e+01  4.261410e+01 -8.446689e-02
   endloop
 endfacet
 facet normal -7.433690e-17  4.226183e-01 -9.063078e-01
   outer loop
     vertex  3.701167e+01  4.039261e+01 -7.495377e-01
     vertex -8.058839e+00  1.143978e+01 -1.425046e+01
     vertex -3.701167e+01  4.039261e+01 -7.495377e-01
   endloop
 endfacet
 facet normal  5.330825e-17  4.226183e-01 -9.063078e-01
   outer loop
     vertex  8.058839e+00  1.143978e+01 -1.425046e+01
     vertex -8.058839e+00  1.143978e+01 -1.425046e+01
     vertex  3.701167e+01  4.039261e+01 -7.495377e-01
   endloop
 endfacet
 facet normal -7.422585e-02  3.583949e-01 -9.306147e-01
   outer loop
     vertex -3.863611e+01  4.072583e+01 -5.330861e-01
     vertex -8.058839e+00  1.143978e+01 -1.425046e+01
     vertex -9.249944e+00  1.039246e+01 -1.455880e+01
   endloop
 endfacet
 facet normal -4.358054e-02  3.860899e-01 -9.214311e-01
   outer loop
     vertex -3.863611e+01  4.072583e+01 -5.330861e-01
     vertex -3.701167e+01  4.039261e+01 -7.495377e-01
     vertex -8.058839e+00  1.143978e+01 -1.425046e+01
   endloop
 endfacet
 facet normal -1.088229e-01  3.284070e-01 -9.382465e-01
   outer loop
     vertex -3.928507e+01  4.071114e+01 -4.629563e-01
     vertex -3.863611e+01  4.072583e+01 -5.330861e-01
     vertex -9.249944e+00  1.039246e+01 -1.455880e+01
   endloop
 endfacet
 facet normal -1.468073e-01  2.937103e-01 -9.445538e-01
   outer loop
     vertex -3.969598e+01  4.061915e+01 -4.276948e-01
     vertex -3.928507e+01  4.071114e+01 -4.629563e-01
     vertex -9.249944e+00  1.039246e+01 -1.455880e+01
   endloop
 endfacet
 facet normal -1.750664e-01  2.667341e-01 -9.477366e-01
   outer loop
     vertex -3.996033e+01  4.050444e+01 -4.111506e-01
     vertex -3.969598e+01  4.061915e+01 -4.276948e-01
     vertex -9.249944e+00  1.039246e+01 -1.455880e+01
   endloop
 endfacet
 facet normal -2.208246e-01  2.208246e-01 -9.499858e-01
   outer loop
     vertex -4.023004e+01  4.031241e+01 -4.025604e-01
     vertex -9.249944e+00  1.039246e+01 -1.455880e+01
     vertex -1.039246e+01  9.249944e+00 -1.455880e+01
   endloop
 endfacet
 facet normal -2.015177e-01  2.405765e-01 -9.494807e-01
   outer loop
     vertex -4.023004e+01  4.031241e+01 -4.025604e-01
     vertex -3.996033e+01  4.050444e+01 -4.111506e-01
     vertex -9.249944e+00  1.039246e+01 -1.455880e+01
   endloop
 endfacet
 facet normal -2.291450e-01  2.127717e-01 -9.498530e-01
   outer loop
     vertex -4.042881e+01  4.008344e+01 -4.059000e-01
     vertex -4.023004e+01  4.031241e+01 -4.025604e-01
     vertex -1.039246e+01  9.249944e+00 -1.455880e+01
   endloop
 endfacet
 facet normal -2.559123e-01  1.861270e-01 -9.486125e-01
   outer loop
     vertex -4.057817e+01  3.980579e+01 -4.200850e-01
     vertex -4.042881e+01  4.008344e+01 -4.059000e-01
     vertex -1.039246e+01  9.249944e+00 -1.455880e+01
   endloop
 endfacet
 facet normal -2.821782e-01  1.590131e-01 -9.460921e-01
   outer loop
     vertex -4.067793e+01  3.948019e+01 -4.450547e-01
     vertex -4.057817e+01  3.980579e+01 -4.200850e-01
     vertex -1.039246e+01  9.249944e+00 -1.455880e+01
   endloop
 endfacet
 facet normal -3.077676e-01  1.316134e-01 -9.423147e-01
   outer loop
     vertex -4.072813e+01  3.910758e+01 -4.807028e-01
     vertex -4.067793e+01  3.948019e+01 -4.450547e-01
     vertex -1.039246e+01  9.249944e+00 -1.455880e+01
   endloop
 endfacet
 facet normal -3.583817e-01  7.421270e-02 -9.306208e-01
   outer loop
     vertex -4.071840e+01  3.853961e+01 -5.445772e-01
     vertex -1.039246e+01  9.249944e+00 -1.455880e+01
     vertex -1.143978e+01  8.058839e+00 -1.425046e+01
   endloop
 endfacet
 facet normal -3.365791e-01  9.954189e-02 -9.363791e-01
   outer loop
     vertex -4.071840e+01  3.853961e+01 -5.445772e-01
     vertex -4.072813e+01  3.910758e+01 -4.807028e-01
     vertex -1.039246e+01  9.249944e+00 -1.455880e+01
   endloop
 endfacet
 facet normal -3.703943e-01  6.098754e-02 -9.268703e-01
   outer loop
     vertex -4.060710e+01  3.782099e+01 -6.363381e-01
     vertex -4.071840e+01  3.853961e+01 -5.445772e-01
     vertex -1.143978e+01  8.058839e+00 -1.425046e+01
   endloop
 endfacet
 facet normal -4.058309e-01  2.024551e-02 -9.137239e-01
   outer loop
     vertex -4.039261e+01  3.701167e+01 -7.495377e-01
     vertex -4.060710e+01  3.782099e+01 -6.363381e-01
     vertex -1.143978e+01  8.058839e+00 -1.425046e+01
   endloop
 endfacet
 facet normal -4.089861e-03  7.265736e-02 -9.973486e-01
   outer loop
     vertex -3.701167e+01  4.261410e+01 -8.446689e-02
     vertex -3.827717e+01  4.370232e+01  0.000000e+00
     vertex -3.701167e+01  4.377356e+01  0.000000e+00
   endloop
 endfacet
 facet normal -7.265650e-02  6.360959e-03 -9.973367e-01
   outer loop
     vertex -4.261410e+01  3.701167e+01 -8.446689e-02
     vertex -4.377356e+01  3.701167e+01  0.000000e+00
     vertex -4.360960e+01  3.888446e+01  0.000000e+00
   endloop
 endfacet
 facet normal -3.554145e-01  3.644305e-02 -9.339981e-01
   outer loop
     vertex -4.039261e+01  3.701167e+01 -7.495377e-01
     vertex -4.147913e+01  3.701167e+01 -3.360839e-01
     vertex -4.060710e+01  3.782099e+01 -6.363381e-01
   endloop
 endfacet
 facet normal -3.113817e-02  8.356283e-02 -9.960159e-01
   outer loop
     vertex -3.957123e+01  4.199027e+01 -1.211035e-01
     vertex -4.067362e+01  4.302296e+01  0.000000e+00
     vertex -3.942901e+01  4.348675e+01  0.000000e+00
   endloop
 endfacet
 facet normal -1.096899e-01  2.336582e-01 -9.661118e-01
   outer loop
     vertex -3.957123e+01  4.199027e+01 -1.211035e-01
     vertex -3.863611e+01  4.072583e+01 -5.330861e-01
     vertex -3.928507e+01  4.071114e+01 -4.629563e-01
   endloop
 endfacet
 facet normal -5.982109e-02  5.579141e-02 -9.966488e-01
   outer loop
     vertex -4.114650e+01  4.114650e+01 -1.012302e-01
     vertex -4.255673e+01  4.144276e+01  0.000000e+00
     vertex -4.171977e+01  4.234018e+01  0.000000e+00
   endloop
 endfacet
 facet normal -1.575412e-01  1.778280e-01 -9.713691e-01
   outer loop
     vertex -4.114650e+01  4.114650e+01 -1.012302e-01
     vertex -3.996033e+01  4.050444e+01 -4.111506e-01
     vertex -4.023004e+01  4.031241e+01 -4.025604e-01
   endloop
 endfacet
 facet normal -1.712717e-01  1.628508e-01 -9.716716e-01
   outer loop
     vertex -4.114650e+01  4.114650e+01 -1.012302e-01
     vertex -4.023004e+01  4.031241e+01 -4.025604e-01
     vertex -4.042881e+01  4.008344e+01 -4.059000e-01
   endloop
 endfacet
 facet normal -8.523127e-02  2.532623e-02 -9.960393e-01
   outer loop
     vertex -4.199027e+01  3.957123e+01 -1.211035e-01
     vertex -4.360960e+01  3.888446e+01  0.000000e+00
     vertex -4.317743e+01  4.033886e+01  0.000000e+00
   endloop
 endfacet
 facet normal -2.297556e-01  1.233131e-01 -9.654047e-01
   outer loop
     vertex -4.199027e+01  3.957123e+01 -1.211035e-01
     vertex -4.067793e+01  3.948019e+01 -4.450547e-01
     vertex -4.072813e+01  3.910758e+01 -4.807028e-01
   endloop
 endfacet
 facet normal -2.367861e-01  1.045724e-01 -9.659177e-01
   outer loop
     vertex -4.199027e+01  3.957123e+01 -1.211035e-01
     vertex -4.072813e+01  3.910758e+01 -4.807028e-01
     vertex -4.071840e+01  3.853961e+01 -5.445772e-01
   endloop
 endfacet
 facet normal -1.498936e-02  8.008897e-02 -9.966750e-01
   outer loop
     vertex -3.846729e+01  4.238271e+01 -1.031797e-01
     vertex -3.942901e+01  4.348675e+01  0.000000e+00
     vertex -3.827717e+01  4.370232e+01  0.000000e+00
   endloop
 endfacet
 facet normal  4.348635e-04  7.788920e-02 -9.969619e-01
   outer loop
     vertex -3.846729e+01  4.238271e+01 -1.031797e-01
     vertex -3.827717e+01  4.370232e+01  0.000000e+00
     vertex -3.701167e+01  4.261410e+01 -8.446689e-02
   endloop
 endfacet
 facet normal -1.292553e-02  8.187590e-02 -9.965587e-01
   outer loop
     vertex -3.846729e+01  4.238271e+01 -1.031797e-01
     vertex -3.957123e+01  4.199027e+01 -1.211035e-01
     vertex -3.942901e+01  4.348675e+01  0.000000e+00
   endloop
 endfacet
 facet normal -6.823980e-02  2.878390e-01 -9.552445e-01
   outer loop
     vertex -3.838603e+01  4.188473e+01 -2.017432e-01
     vertex -3.701167e+01  4.039261e+01 -7.495377e-01
     vertex -3.863611e+01  4.072583e+01 -5.330861e-01
   endloop
 endfacet
 facet normal -3.153906e-02  2.163319e-01 -9.758103e-01
   outer loop
     vertex -3.838603e+01  4.188473e+01 -2.017432e-01
     vertex -3.701167e+01  4.261410e+01 -8.446689e-02
     vertex -3.701167e+01  4.147913e+01 -3.360839e-01
   endloop
 endfacet
 facet normal  1.360174e-02  3.556179e-01 -9.345325e-01
   outer loop
     vertex -3.838603e+01  4.188473e+01 -2.017432e-01
     vertex -3.701167e+01  4.147913e+01 -3.360839e-01
     vertex -3.701167e+01  4.039261e+01 -7.495377e-01
   endloop
 endfacet
 facet normal -5.019876e-02  1.860283e-01 -9.812612e-01
   outer loop
     vertex -3.838603e+01  4.188473e+01 -2.017432e-01
     vertex -3.957123e+01  4.199027e+01 -1.211035e-01
     vertex -3.846729e+01  4.238271e+01 -1.031797e-01
   endloop
 endfacet
 facet normal -1.779952e-02  1.913351e-01 -9.813634e-01
   outer loop
     vertex -3.838603e+01  4.188473e+01 -2.017432e-01
     vertex -3.846729e+01  4.238271e+01 -1.031797e-01
     vertex -3.701167e+01  4.261410e+01 -8.446689e-02
   endloop
 endfacet
 facet normal -4.003828e-02  2.826518e-01 -9.583866e-01
   outer loop
     vertex -3.838603e+01  4.188473e+01 -2.017432e-01
     vertex -3.863611e+01  4.072583e+01 -5.330861e-01
     vertex -3.957123e+01  4.199027e+01 -1.211035e-01
   endloop
 endfacet
 facet normal -2.313662e-02  3.544961e-02 -9.991036e-01
   outer loop
     vertex -4.104445e+01  4.205120e+01 -2.589207e-02
     vertex -4.171977e+01  4.234018e+01  0.000000e+00
     vertex -4.067362e+01  4.302296e+01  0.000000e+00
   endloop
 endfacet
 facet normal -6.233795e-02  5.034748e-02 -9.967844e-01
   outer loop
     vertex -4.104445e+01  4.205120e+01 -2.589207e-02
     vertex -4.067362e+01  4.302296e+01  0.000000e+00
     vertex -3.957123e+01  4.199027e+01 -1.211035e-01
   endloop
 endfacet
 facet normal -2.571861e-03  8.327473e-02 -9.965233e-01
   outer loop
     vertex -4.104445e+01  4.205120e+01 -2.589207e-02
     vertex -4.114650e+01  4.114650e+01 -1.012302e-01
     vertex -4.171977e+01  4.234018e+01  0.000000e+00
   endloop
 endfacet
 facet normal -1.292953e-01  2.057164e-01 -9.700327e-01
   outer loop
     vertex -4.046937e+01  4.165030e+01 -1.059322e-01
     vertex -3.928507e+01  4.071114e+01 -4.629563e-01
     vertex -3.969598e+01  4.061915e+01 -4.276948e-01
   endloop
 endfacet
 facet normal -1.449315e-01  1.940493e-01 -9.702266e-01
   outer loop
     vertex -4.046937e+01  4.165030e+01 -1.059322e-01
     vertex -3.969598e+01  4.061915e+01 -4.276948e-01
     vertex -3.996033e+01  4.050444e+01 -4.111506e-01
   endloop
 endfacet
 facet normal -7.469117e-02  9.111872e-02 -9.930350e-01
   outer loop
     vertex -4.046937e+01  4.165030e+01 -1.059322e-01
     vertex -4.114650e+01  4.114650e+01 -1.012302e-01
     vertex -4.104445e+01  4.205120e+01 -2.589207e-02
   endloop
 endfacet
 facet normal -1.495374e-01  1.919293e-01 -9.699493e-01
   outer loop
     vertex -4.046937e+01  4.165030e+01 -1.059322e-01
     vertex -3.996033e+01  4.050444e+01 -4.111506e-01
     vertex -4.114650e+01  4.114650e+01 -1.012302e-01
   endloop
 endfacet
 facet normal -5.943747e-02  1.127623e-01 -9.918427e-01
   outer loop
     vertex -4.046937e+01  4.165030e+01 -1.059322e-01
     vertex -4.104445e+01  4.205120e+01 -2.589207e-02
     vertex -3.957123e+01  4.199027e+01 -1.211035e-01
   endloop
 endfacet
 facet normal -1.051758e-01  2.347326e-01 -9.663533e-01
   outer loop
     vertex -4.046937e+01  4.165030e+01 -1.059322e-01
     vertex -3.957123e+01  4.199027e+01 -1.211035e-01
     vertex -3.928507e+01  4.071114e+01 -4.629563e-01
   endloop
 endfacet
 facet normal -3.810992e-02  2.142814e-02 -9.990438e-01
   outer loop
     vertex -4.237432e+01  4.048668e+01 -2.746506e-02
     vertex -4.317743e+01  4.033886e+01  0.000000e+00
     vertex -4.255673e+01  4.144276e+01  0.000000e+00
   endloop
 endfacet
 facet normal -4.900251e-02  8.126747e-02 -9.954870e-01
   outer loop
     vertex -4.237432e+01  4.048668e+01 -2.746506e-02
     vertex -4.199027e+01  3.957123e+01 -1.211035e-01
     vertex -4.317743e+01  4.033886e+01  0.000000e+00
   endloop
 endfacet
 facet normal -1.902062e-01  1.518706e-01 -9.699262e-01
   outer loop
     vertex -4.165030e+01  4.046937e+01 -1.059322e-01
     vertex -4.042881e+01  4.008344e+01 -4.059000e-01
     vertex -4.057817e+01  3.980579e+01 -4.200850e-01
   endloop
 endfacet
 facet normal -2.002746e-01  1.357738e-01 -9.702863e-01
   outer loop
     vertex -4.165030e+01  4.046937e+01 -1.059322e-01
     vertex -4.057817e+01  3.980579e+01 -4.200850e-01
     vertex -4.067793e+01  3.948019e+01 -4.450547e-01
   endloop
 endfacet
 facet normal -1.911815e-01  1.489827e-01 -9.701823e-01
   outer loop
     vertex -4.165030e+01  4.046937e+01 -1.059322e-01
     vertex -4.114650e+01  4.114650e+01 -1.012302e-01
     vertex -4.042881e+01  4.008344e+01 -4.059000e-01
   endloop
 endfacet
 facet normal -1.062250e-01  5.697755e-02 -9.927083e-01
   outer loop
     vertex -4.165030e+01  4.046937e+01 -1.059322e-01
     vertex -4.199027e+01  3.957123e+01 -1.211035e-01
     vertex -4.237432e+01  4.048668e+01 -2.746506e-02
   endloop
 endfacet
 facet normal -1.075533e-01  8.038786e-03 -9.941668e-01
   outer loop
     vertex -4.165030e+01  4.046937e+01 -1.059322e-01
     vertex -4.237432e+01  4.048668e+01 -2.746506e-02
     vertex -4.255673e+01  4.144276e+01  0.000000e+00
   endloop
 endfacet
 facet normal -2.315515e-01  1.039868e-01 -9.672490e-01
   outer loop
     vertex -4.165030e+01  4.046937e+01 -1.059322e-01
     vertex -4.067793e+01  3.948019e+01 -4.450547e-01
     vertex -4.199027e+01  3.957123e+01 -1.211035e-01
   endloop
 endfacet
 facet normal -6.062297e-02  5.202745e-02 -9.968039e-01
   outer loop
     vertex -4.165030e+01  4.046937e+01 -1.059322e-01
     vertex -4.255673e+01  4.144276e+01  0.000000e+00
     vertex -4.114650e+01  4.114650e+01 -1.012302e-01
   endloop
 endfacet
 facet normal -7.969472e-02  1.214712e-02 -9.967453e-01
   outer loop
     vertex -4.238271e+01  3.846729e+01 -1.031797e-01
     vertex -4.360960e+01  3.888446e+01  0.000000e+00
     vertex -4.199027e+01  3.957123e+01 -1.211035e-01
   endloop
 endfacet
 facet normal -8.363914e-02  4.851626e-04 -9.964960e-01
   outer loop
     vertex -4.238271e+01  3.846729e+01 -1.031797e-01
     vertex -4.261410e+01  3.701167e+01 -8.446689e-02
     vertex -4.360960e+01  3.888446e+01  0.000000e+00
   endloop
 endfacet
 facet normal -2.163319e-01  3.153906e-02 -9.758103e-01
   outer loop
     vertex -4.188473e+01  3.838603e+01 -2.017432e-01
     vertex -4.147913e+01  3.701167e+01 -3.360839e-01
     vertex -4.261410e+01  3.701167e+01 -8.446689e-02
   endloop
 endfacet
 facet normal -2.904734e-01  7.680344e-02 -9.537958e-01
   outer loop
     vertex -4.188473e+01  3.838603e+01 -2.017432e-01
     vertex -4.071840e+01  3.853961e+01 -5.445772e-01
     vertex -4.060710e+01  3.782099e+01 -6.363381e-01
   endloop
 endfacet
 facet normal -2.865869e-01  3.960951e-02 -9.572351e-01
   outer loop
     vertex -4.188473e+01  3.838603e+01 -2.017432e-01
     vertex -4.199027e+01  3.957123e+01 -1.211035e-01
     vertex -4.071840e+01  3.853961e+01 -5.445772e-01
   endloop
 endfacet
 facet normal -1.913351e-01  1.779952e-02 -9.813634e-01
   outer loop
     vertex -4.188473e+01  3.838603e+01 -2.017432e-01
     vertex -4.261410e+01  3.701167e+01 -8.446689e-02
     vertex -4.238271e+01  3.846729e+01 -1.031797e-01
   endloop
 endfacet
 facet normal -1.860283e-01  5.019876e-02 -9.812612e-01
   outer loop
     vertex -4.188473e+01  3.838603e+01 -2.017432e-01
     vertex -4.238271e+01  3.846729e+01 -1.031797e-01
     vertex -4.199027e+01  3.957123e+01 -1.211035e-01
   endloop
 endfacet
 facet normal -3.231735e-01 -2.873057e-03 -9.463354e-01
   outer loop
     vertex -4.188473e+01  3.838603e+01 -2.017432e-01
     vertex -4.060710e+01  3.782099e+01 -6.363381e-01
     vertex -4.147913e+01  3.701167e+01 -3.360839e-01
   endloop
 endfacet
 facet normal -3.556508e-01  1.096623e-17 -9.346189e-01
   outer loop
     vertex -4.147913e+01 -3.701167e+01 -3.360839e-01
     vertex -4.039261e+01  3.701167e+01 -7.495377e-01
     vertex -4.039261e+01 -3.701167e+01 -7.495377e-01
   endloop
 endfacet
 facet normal -3.556508e-01 -6.778101e-17 -9.346189e-01
   outer loop
     vertex -4.147913e+01 -3.701167e+01 -3.360839e-01
     vertex -4.147913e+01  3.701167e+01 -3.360839e-01
     vertex -4.039261e+01  3.701167e+01 -7.495377e-01
   endloop
 endfacet
 facet normal -2.164396e-01 -4.685685e-17 -9.762960e-01
   outer loop
     vertex -4.261410e+01 -3.701167e+01 -8.446689e-02
     vertex -4.261410e+01  3.701167e+01 -8.446689e-02
     vertex -4.147913e+01  3.701167e+01 -3.360839e-01
   endloop
 endfacet
 facet normal -2.164396e-01 -5.547621e-17 -9.762960e-01
   outer loop
     vertex -4.261410e+01 -3.701167e+01 -8.446689e-02
     vertex -4.147913e+01  3.701167e+01 -3.360839e-01
     vertex -4.147913e+01 -3.701167e+01 -3.360839e-01
   endloop
 endfacet
 facet normal -7.265797e-02  0.000000e+00 -9.973569e-01
   outer loop
     vertex -4.377356e+01 -3.701167e+01  0.000000e+00
     vertex -4.377356e+01  3.701167e+01  0.000000e+00
     vertex -4.261410e+01  3.701167e+01 -8.446689e-02
   endloop
 endfacet
 facet normal -7.265797e-02 -4.789662e-17 -9.973569e-01
   outer loop
     vertex -4.377356e+01 -3.701167e+01  0.000000e+00
     vertex -4.261410e+01  3.701167e+01 -8.446689e-02
     vertex -4.261410e+01 -3.701167e+01 -8.446689e-02
   endloop
 endfacet
 facet normal -4.226183e-01  0.000000e+00 -9.063078e-01
   outer loop
     vertex -1.143978e+01  8.058839e+00 -1.425046e+01
     vertex -4.039261e+01 -3.701167e+01 -7.495377e-01
     vertex -4.039261e+01  3.701167e+01 -7.495377e-01
   endloop
 endfacet
 facet normal -4.226183e-01  4.657748e-17 -9.063078e-01
   outer loop
     vertex -1.143978e+01  8.058839e+00 -1.425046e+01
     vertex -1.143978e+01 -8.058839e+00 -1.425046e+01
     vertex -4.039261e+01 -3.701167e+01 -7.495377e-01
   endloop
 endfacet
 facet normal -6.098754e-02 -3.703943e-01 -9.268703e-01
   outer loop
     vertex -8.058839e+00 -1.143978e+01 -1.425046e+01
     vertex -3.782099e+01 -4.060710e+01 -6.363381e-01
     vertex -3.853961e+01 -4.071840e+01 -5.445772e-01
   endloop
 endfacet
 facet normal -2.024551e-02 -4.058309e-01 -9.137239e-01
   outer loop
     vertex -8.058839e+00 -1.143978e+01 -1.425046e+01
     vertex -3.701167e+01 -4.039261e+01 -7.495377e-01
     vertex -3.782099e+01 -4.060710e+01 -6.363381e-01
   endloop
 endfacet
 facet normal -2.127717e-01 -2.291450e-01 -9.498530e-01
   outer loop
     vertex -9.249944e+00 -1.039246e+01 -1.455880e+01
     vertex -4.008344e+01 -4.042881e+01 -4.059000e-01
     vertex -4.031241e+01 -4.023004e+01 -4.025604e-01
   endloop
 endfacet
 facet normal -1.861270e-01 -2.559123e-01 -9.486125e-01
   outer loop
     vertex -9.249944e+00 -1.039246e+01 -1.455880e+01
     vertex -3.980579e+01 -4.057817e+01 -4.200850e-01
     vertex -4.008344e+01 -4.042881e+01 -4.059000e-01
   endloop
 endfacet
 facet normal -1.590131e-01 -2.821782e-01 -9.460921e-01
   outer loop
     vertex -9.249944e+00 -1.039246e+01 -1.455880e+01
     vertex -3.948019e+01 -4.067793e+01 -4.450547e-01
     vertex -3.980579e+01 -4.057817e+01 -4.200850e-01
   endloop
 endfacet
 facet normal -1.316134e-01 -3.077676e-01 -9.423147e-01
   outer loop
     vertex -9.249944e+00 -1.039246e+01 -1.455880e+01
     vertex -3.910758e+01 -4.072813e+01 -4.807028e-01
     vertex -3.948019e+01 -4.067793e+01 -4.450547e-01
   endloop
 endfacet
 facet normal -9.954189e-02 -3.365791e-01 -9.363791e-01
   outer loop
     vertex -9.249944e+00 -1.039246e+01 -1.455880e+01
     vertex -3.853961e+01 -4.071840e+01 -5.445772e-01
     vertex -3.910758e+01 -4.072813e+01 -4.807028e-01
   endloop
 endfacet
 facet normal -7.421270e-02 -3.583817e-01 -9.306208e-01
   outer loop
     vertex -9.249944e+00 -1.039246e+01 -1.455880e+01
     vertex -8.058839e+00 -1.143978e+01 -1.425046e+01
     vertex -3.853961e+01 -4.071840e+01 -5.445772e-01
   endloop
 endfacet
 facet normal -3.284070e-01 -1.088229e-01 -9.382465e-01
   outer loop
     vertex -1.039246e+01 -9.249944e+00 -1.455880e+01
     vertex -4.071114e+01 -3.928507e+01 -4.629563e-01
     vertex -4.072583e+01 -3.863611e+01 -5.330861e-01
   endloop
 endfacet
 facet normal -2.937103e-01 -1.468073e-01 -9.445538e-01
   outer loop
     vertex -1.039246e+01 -9.249944e+00 -1.455880e+01
     vertex -4.061915e+01 -3.969598e+01 -4.276948e-01
     vertex -4.071114e+01 -3.928507e+01 -4.629563e-01
   endloop
 endfacet
 facet normal -2.667341e-01 -1.750664e-01 -9.477366e-01
   outer loop
     vertex -1.039246e+01 -9.249944e+00 -1.455880e+01
     vertex -4.050444e+01 -3.996033e+01 -4.111506e-01
     vertex -4.061915e+01 -3.969598e+01 -4.276948e-01
   endloop
 endfacet
 facet normal -2.405765e-01 -2.015177e-01 -9.494807e-01
   outer loop
     vertex -1.039246e+01 -9.249944e+00 -1.455880e+01
     vertex -4.031241e+01 -4.023004e+01 -4.025604e-01
     vertex -4.050444e+01 -3.996033e+01 -4.111506e-01
   endloop
 endfacet
 facet normal -2.208246e-01 -2.208246e-01 -9.499858e-01
   outer loop
     vertex -1.039246e+01 -9.249944e+00 -1.455880e+01
     vertex -9.249944e+00 -1.039246e+01 -1.455880e+01
     vertex -4.031241e+01 -4.023004e+01 -4.025604e-01
   endloop
 endfacet
 facet normal -3.860899e-01 -4.358054e-02 -9.214311e-01
   outer loop
     vertex -1.143978e+01 -8.058839e+00 -1.425046e+01
     vertex -4.072583e+01 -3.863611e+01 -5.330861e-01
     vertex -4.039261e+01 -3.701167e+01 -7.495377e-01
   endloop
 endfacet
 facet normal -3.583949e-01 -7.422585e-02 -9.306147e-01
   outer loop
     vertex -1.143978e+01 -8.058839e+00 -1.425046e+01
     vertex -1.039246e+01 -9.249944e+00 -1.455880e+01
     vertex -4.072583e+01 -3.863611e+01 -5.330861e-01
   endloop
 endfacet
 facet normal -1.103983e-16 -4.226183e-01 -9.063078e-01
   outer loop
     vertex  3.701167e+01 -4.039261e+01 -7.495377e-01
     vertex -8.058839e+00 -1.143978e+01 -1.425046e+01
     vertex  8.058839e+00 -1.143978e+01 -1.425046e+01
   endloop
 endfacet
 facet normal  7.977412e-17 -4.226183e-01 -9.063078e-01
   outer loop
     vertex  3.701167e+01 -4.039261e+01 -7.495377e-01
     vertex -3.701167e+01 -4.039261e+01 -7.495377e-01
     vertex -8.058839e+00 -1.143978e+01 -1.425046e+01
   endloop
 endfacet
 facet normal  6.708752e-17 -3.556508e-01 -9.346189e-01
   outer loop
     vertex  3.701167e+01 -4.147913e+01 -3.360839e-01
     vertex -3.701167e+01 -4.039261e+01 -7.495377e-01
     vertex  3.701167e+01 -4.039261e+01 -7.495377e-01
   endloop
 endfacet
 facet normal  3.513084e-17 -3.556508e-01 -9.346189e-01
   outer loop
     vertex  3.701167e+01 -4.147913e+01 -3.360839e-01
     vertex -3.701167e+01 -4.147913e+01 -3.360839e-01
     vertex -3.701167e+01 -4.039261e+01 -7.495377e-01
   endloop
 endfacet
 facet normal  2.453225e-17 -2.164396e-01 -9.762960e-01
   outer loop
     vertex  3.701167e+01 -4.261410e+01 -8.446689e-02
     vertex -3.701167e+01 -4.261410e+01 -8.446689e-02
     vertex -3.701167e+01 -4.147913e+01 -3.360839e-01
   endloop
 endfacet
 facet normal -7.740867e-18 -2.164396e-01 -9.762960e-01
   outer loop
     vertex  3.701167e+01 -4.261410e+01 -8.446689e-02
     vertex -3.701167e+01 -4.147913e+01 -3.360839e-01
     vertex  3.701167e+01 -4.147913e+01 -3.360839e-01
   endloop
 endfacet
 facet normal  1.394874e-17 -7.265797e-02 -9.973569e-01
   outer loop
     vertex  3.701167e+01 -4.377356e+01  0.000000e+00
     vertex -3.701167e+01 -4.377356e+01  0.000000e+00
     vertex -3.701167e+01 -4.261410e+01 -8.446689e-02
   endloop
 endfacet
 facet normal -3.193108e-17 -7.265797e-02 -9.973569e-01
   outer loop
     vertex  3.701167e+01 -4.377356e+01  0.000000e+00
     vertex -3.701167e+01 -4.261410e+01 -8.446689e-02
     vertex  3.701167e+01 -4.261410e+01 -8.446689e-02
   endloop
 endfacet
 facet normal -7.265736e-02 -4.089861e-03 -9.973486e-01
   outer loop
     vertex -4.261410e+01 -3.701167e+01 -8.446689e-02
     vertex -4.370232e+01 -3.827717e+01 -4.669087e-16
     vertex -4.377356e+01 -3.701167e+01  0.000000e+00
   endloop
 endfacet
 facet normal -6.360959e-03 -7.265650e-02 -9.973367e-01
   outer loop
     vertex -3.701167e+01 -4.261410e+01 -8.446689e-02
     vertex -3.701167e+01 -4.377356e+01  0.000000e+00
     vertex -3.888446e+01 -4.360960e+01 -6.680839e-16
   endloop
 endfacet
 facet normal -3.644305e-02 -3.554145e-01 -9.339981e-01
   outer loop
     vertex -3.701167e+01 -4.039261e+01 -7.495377e-01
     vertex -3.701167e+01 -4.147913e+01 -3.360839e-01
     vertex -3.782099e+01 -4.060710e+01 -6.363381e-01
   endloop
 endfacet
 facet normal -8.356283e-02 -3.113817e-02 -9.960159e-01
   outer loop
     vertex -4.199027e+01 -3.957123e+01 -1.211035e-01
     vertex -4.302296e+01 -4.067362e+01 -1.138220e-15
     vertex -4.348675e+01 -3.942901e+01 -8.329491e-16
   endloop
 endfacet
 facet normal -2.336582e-01 -1.096899e-01 -9.661118e-01
   outer loop
     vertex -4.199027e+01 -3.957123e+01 -1.211035e-01
     vertex -4.072583e+01 -3.863611e+01 -5.330861e-01
     vertex -4.071114e+01 -3.928507e+01 -4.629563e-01
   endloop
 endfacet
 facet normal -5.579141e-02 -5.982109e-02 -9.966488e-01
   outer loop
     vertex -4.114650e+01 -4.114650e+01 -1.012302e-01
     vertex -4.144276e+01 -4.255673e+01 -1.256647e-15
     vertex -4.234018e+01 -4.171977e+01 -1.280281e-15
   endloop
 endfacet
 facet normal -1.778280e-01 -1.575412e-01 -9.713691e-01
   outer loop
     vertex -4.114650e+01 -4.114650e+01 -1.012302e-01
     vertex -4.050444e+01 -3.996033e+01 -4.111506e-01
     vertex -4.031241e+01 -4.023004e+01 -4.025604e-01
   endloop
 endfacet
 facet normal -1.628508e-01 -1.712717e-01 -9.716716e-01
   outer loop
     vertex -4.114650e+01 -4.114650e+01 -1.012302e-01
     vertex -4.031241e+01 -4.023004e+01 -4.025604e-01
     vertex -4.008344e+01 -4.042881e+01 -4.059000e-01
   endloop
 endfacet
 facet normal -2.532623e-02 -8.523127e-02 -9.960393e-01
   outer loop
     vertex -3.957123e+01 -4.199027e+01 -1.211035e-01
     vertex -3.888446e+01 -4.360960e+01 -6.680839e-16
     vertex -4.033886e+01 -4.317743e+01 -1.067732e-15
   endloop
 endfacet
 facet normal -1.233131e-01 -2.297556e-01 -9.654047e-01
   outer loop
     vertex -3.957123e+01 -4.199027e+01 -1.211035e-01
     vertex -3.948019e+01 -4.067793e+01 -4.450547e-01
     vertex -3.910758e+01 -4.072813e+01 -4.807028e-01
   endloop
 endfacet
 facet normal -1.045724e-01 -2.367861e-01 -9.659177e-01
   outer loop
     vertex -3.957123e+01 -4.199027e+01 -1.211035e-01
     vertex -3.910758e+01 -4.072813e+01 -4.807028e-01
     vertex -3.853961e+01 -4.071840e+01 -5.445772e-01
   endloop
 endfacet
 facet normal -8.008897e-02 -1.498936e-02 -9.966750e-01
   outer loop
     vertex -4.238271e+01 -3.846729e+01 -1.031797e-01
     vertex -4.348675e+01 -3.942901e+01 -8.329491e-16
     vertex -4.370232e+01 -3.827717e+01 -4.669087e-16
   endloop
 endfacet
 facet normal -2.163879e-01 -2.185018e-02 -9.760629e-01
   outer loop
     vertex -4.238271e+01 -3.846729e+01 -1.031797e-01
     vertex -4.261410e+01 -3.701167e+01 -8.446689e-02
     vertex -4.147913e+01 -3.701167e+01 -3.360839e-01
   endloop
 endfacet
 facet normal -7.788920e-02  4.348635e-04 -9.969619e-01
   outer loop
     vertex -4.238271e+01 -3.846729e+01 -1.031797e-01
     vertex -4.370232e+01 -3.827717e+01 -4.669087e-16
     vertex -4.261410e+01 -3.701167e+01 -8.446689e-02
   endloop
 endfacet
 facet normal -8.187590e-02 -1.292553e-02 -9.965587e-01
   outer loop
     vertex -4.238271e+01 -3.846729e+01 -1.031797e-01
     vertex -4.199027e+01 -3.957123e+01 -1.211035e-01
     vertex -4.348675e+01 -3.942901e+01 -8.329491e-16
   endloop
 endfacet
 facet normal -2.878390e-01 -6.823980e-02 -9.552445e-01
   outer loop
     vertex -4.188473e+01 -3.838603e+01 -2.017432e-01
     vertex -4.039261e+01 -3.701167e+01 -7.495377e-01
     vertex -4.072583e+01 -3.863611e+01 -5.330861e-01
   endloop
 endfacet
 facet normal -3.556179e-01  1.360174e-02 -9.345325e-01
   outer loop
     vertex -4.188473e+01 -3.838603e+01 -2.017432e-01
     vertex -4.147913e+01 -3.701167e+01 -3.360839e-01
     vertex -4.039261e+01 -3.701167e+01 -7.495377e-01
   endloop
 endfacet
 facet normal -1.876296e-01 -4.055629e-02 -9.814022e-01
   outer loop
     vertex -4.188473e+01 -3.838603e+01 -2.017432e-01
     vertex -4.238271e+01 -3.846729e+01 -1.031797e-01
     vertex -4.147913e+01 -3.701167e+01 -3.360839e-01
   endloop
 endfacet
 facet normal -1.860283e-01 -5.019876e-02 -9.812612e-01
   outer loop
     vertex -4.188473e+01 -3.838603e+01 -2.017432e-01
     vertex -4.199027e+01 -3.957123e+01 -1.211035e-01
     vertex -4.238271e+01 -3.846729e+01 -1.031797e-01
   endloop
 endfacet
 facet normal -2.826518e-01 -4.003828e-02 -9.583866e-01
   outer loop
     vertex -4.188473e+01 -3.838603e+01 -2.017432e-01
     vertex -4.072583e+01 -3.863611e+01 -5.330861e-01
     vertex -4.199027e+01 -3.957123e+01 -1.211035e-01
   endloop
 endfacet
 facet normal -3.544961e-02 -2.313662e-02 -9.991036e-01
   outer loop
     vertex -4.205120e+01 -4.104445e+01 -2.589207e-02
     vertex -4.234018e+01 -4.171977e+01 -1.280281e-15
     vertex -4.302296e+01 -4.067362e+01 -1.138220e-15
   endloop
 endfacet
 facet normal -5.034748e-02 -6.233795e-02 -9.967844e-01
   outer loop
     vertex -4.205120e+01 -4.104445e+01 -2.589207e-02
     vertex -4.302296e+01 -4.067362e+01 -1.138220e-15
     vertex -4.199027e+01 -3.957123e+01 -1.211035e-01
   endloop
 endfacet
 facet normal -8.327473e-02 -2.571861e-03 -9.965233e-01
   outer loop
     vertex -4.205120e+01 -4.104445e+01 -2.589207e-02
     vertex -4.114650e+01 -4.114650e+01 -1.012302e-01
     vertex -4.234018e+01 -4.171977e+01 -1.280281e-15
   endloop
 endfacet
 facet normal -2.057164e-01 -1.292953e-01 -9.700327e-01
   outer loop
     vertex -4.165030e+01 -4.046937e+01 -1.059322e-01
     vertex -4.071114e+01 -3.928507e+01 -4.629563e-01
     vertex -4.061915e+01 -3.969598e+01 -4.276948e-01
   endloop
 endfacet
 facet normal -1.940493e-01 -1.449315e-01 -9.702266e-01
   outer loop
     vertex -4.165030e+01 -4.046937e+01 -1.059322e-01
     vertex -4.061915e+01 -3.969598e+01 -4.276948e-01
     vertex -4.050444e+01 -3.996033e+01 -4.111506e-01
   endloop
 endfacet
 facet normal -1.127623e-01 -5.943747e-02 -9.918427e-01
   outer loop
     vertex -4.165030e+01 -4.046937e+01 -1.059322e-01
     vertex -4.205120e+01 -4.104445e+01 -2.589207e-02
     vertex -4.199027e+01 -3.957123e+01 -1.211035e-01
   endloop
 endfacet
 facet normal -1.919293e-01 -1.495374e-01 -9.699493e-01
   outer loop
     vertex -4.165030e+01 -4.046937e+01 -1.059322e-01
     vertex -4.050444e+01 -3.996033e+01 -4.111506e-01
     vertex -4.114650e+01 -4.114650e+01 -1.012302e-01
   endloop
 endfacet
 facet normal -9.111872e-02 -7.469117e-02 -9.930350e-01
   outer loop
     vertex -4.165030e+01 -4.046937e+01 -1.059322e-01
     vertex -4.114650e+01 -4.114650e+01 -1.012302e-01
     vertex -4.205120e+01 -4.104445e+01 -2.589207e-02
   endloop
 endfacet
 facet normal -2.347326e-01 -1.051758e-01 -9.663533e-01
   outer loop
     vertex -4.165030e+01 -4.046937e+01 -1.059322e-01
     vertex -4.199027e+01 -3.957123e+01 -1.211035e-01
     vertex -4.071114e+01 -3.928507e+01 -4.629563e-01
   endloop
 endfacet
 facet normal -2.142814e-02 -3.810992e-02 -9.990438e-01
   outer loop
     vertex -4.048668e+01 -4.237432e+01 -2.746506e-02
     vertex -4.033886e+01 -4.317743e+01 -1.067732e-15
     vertex -4.144276e+01 -4.255673e+01 -1.256647e-15
   endloop
 endfacet
 facet normal -8.126747e-02 -4.900251e-02 -9.954870e-01
   outer loop
     vertex -4.048668e+01 -4.237432e+01 -2.746506e-02
     vertex -3.957123e+01 -4.199027e+01 -1.211035e-01
     vertex -4.033886e+01 -4.317743e+01 -1.067732e-15
   endloop
 endfacet
 facet normal -1.518706e-01 -1.902062e-01 -9.699262e-01
   outer loop
     vertex -4.046937e+01 -4.165030e+01 -1.059322e-01
     vertex -4.008344e+01 -4.042881e+01 -4.059000e-01
     vertex -3.980579e+01 -4.057817e+01 -4.200850e-01
   endloop
 endfacet
 facet normal -1.357738e-01 -2.002746e-01 -9.702863e-01
   outer loop
     vertex -4.046937e+01 -4.165030e+01 -1.059322e-01
     vertex -3.980579e+01 -4.057817e+01 -4.200850e-01
     vertex -3.948019e+01 -4.067793e+01 -4.450547e-01
   endloop
 endfacet
 facet normal -8.038786e-03 -1.075533e-01 -9.941668e-01
   outer loop
     vertex -4.046937e+01 -4.165030e+01 -1.059322e-01
     vertex -4.048668e+01 -4.237432e+01 -2.746506e-02
     vertex -4.144276e+01 -4.255673e+01 -1.256647e-15
   endloop
 endfacet
 facet normal -1.489827e-01 -1.911815e-01 -9.701823e-01
   outer loop
     vertex -4.046937e+01 -4.165030e+01 -1.059322e-01
     vertex -4.114650e+01 -4.114650e+01 -1.012302e-01
     vertex -4.008344e+01 -4.042881e+01 -4.059000e-01
   endloop
 endfacet
 facet normal -1.039868e-01 -2.315515e-01 -9.672490e-01
   outer loop
     vertex -4.046937e+01 -4.165030e+01 -1.059322e-01
     vertex -3.948019e+01 -4.067793e+01 -4.450547e-01
     vertex -3.957123e+01 -4.199027e+01 -1.211035e-01
   endloop
 endfacet
 facet normal -5.697755e-02 -1.062250e-01 -9.927083e-01
   outer loop
     vertex -4.046937e+01 -4.165030e+01 -1.059322e-01
     vertex -3.957123e+01 -4.199027e+01 -1.211035e-01
     vertex -4.048668e+01 -4.237432e+01 -2.746506e-02
   endloop
 endfacet
 facet normal -5.202745e-02 -6.062297e-02 -9.968039e-01
   outer loop
     vertex -4.046937e+01 -4.165030e+01 -1.059322e-01
     vertex -4.144276e+01 -4.255673e+01 -1.256647e-15
     vertex -4.114650e+01 -4.114650e+01 -1.012302e-01
   endloop
 endfacet
 facet normal -2.185018e-02 -2.163879e-01 -9.760629e-01
   outer loop
     vertex -3.846729e+01 -4.238271e+01 -1.031797e-01
     vertex -3.701167e+01 -4.147913e+01 -3.360839e-01
     vertex -3.701167e+01 -4.261410e+01 -8.446689e-02
   endloop
 endfacet
 facet normal -1.214712e-02 -7.969472e-02 -9.967453e-01
   outer loop
     vertex -3.846729e+01 -4.238271e+01 -1.031797e-01
     vertex -3.888446e+01 -4.360960e+01 -6.680839e-16
     vertex -3.957123e+01 -4.199027e+01 -1.211035e-01
   endloop
 endfacet
 facet normal -4.851626e-04 -8.363914e-02 -9.964960e-01
   outer loop
     vertex -3.846729e+01 -4.238271e+01 -1.031797e-01
     vertex -3.701167e+01 -4.261410e+01 -8.446689e-02
     vertex -3.888446e+01 -4.360960e+01 -6.680839e-16
   endloop
 endfacet
 facet normal -7.680344e-02 -2.904734e-01 -9.537958e-01
   outer loop
     vertex -3.838603e+01 -4.188473e+01 -2.017432e-01
     vertex -3.853961e+01 -4.071840e+01 -5.445772e-01
     vertex -3.782099e+01 -4.060710e+01 -6.363381e-01
   endloop
 endfacet
 facet normal -3.960951e-02 -2.865869e-01 -9.572351e-01
   outer loop
     vertex -3.838603e+01 -4.188473e+01 -2.017432e-01
     vertex -3.957123e+01 -4.199027e+01 -1.211035e-01
     vertex -3.853961e+01 -4.071840e+01 -5.445772e-01
   endloop
 endfacet
 facet normal -5.019876e-02 -1.860283e-01 -9.812612e-01
   outer loop
     vertex -3.838603e+01 -4.188473e+01 -2.017432e-01
     vertex -3.846729e+01 -4.238271e+01 -1.031797e-01
     vertex -3.957123e+01 -4.199027e+01 -1.211035e-01
   endloop
 endfacet
 facet normal -4.055629e-02 -1.876296e-01 -9.814022e-01
   outer loop
     vertex -3.838603e+01 -4.188473e+01 -2.017432e-01
     vertex -3.701167e+01 -4.147913e+01 -3.360839e-01
     vertex -3.846729e+01 -4.238271e+01 -1.031797e-01
   endloop
 endfacet
 facet normal  2.873057e-03 -3.231735e-01 -9.463354e-01
   outer loop
     vertex -3.838603e+01 -4.188473e+01 -2.017432e-01
     vertex -3.782099e+01 -4.060710e+01 -6.363381e-01
     vertex -3.701167e+01 -4.147913e+01 -3.360839e-01
   endloop
 endfacet
endsolid
